<?xml version="1.0" standalone="no"?>
<!DOCTYPE svg PUBLIC "-//W3C//DTD SVG 20010904//EN"
 "http://www.w3.org/TR/2001/REC-SVG-20010904/DTD/svg10.dtd">
<svg version="1.0" xmlns="http://www.w3.org/2000/svg"
 width="553.000000pt" height="1200.000000pt" viewBox="0 0 553.000000 1200.000000"
 preserveAspectRatio="xMidYMid meet">
<metadata>
Created by potrace 1.15, written by Peter Selinger 2001-2017
</metadata>
<g transform="translate(0.000000,1200.000000) scale(0.100000,-0.100000)"
fill="#000000" stroke="none">
<path d="M1197 11857 c-8 -6 -5 -7 7 -3 15 5 17 2 13 -14 -5 -19 2 -24 29 -21
14 2 39 -27 31 -36 -4 -3 -12 -1 -20 5 -8 7 -18 7 -27 2 -11 -7 -17 -4 -22 8
-7 14 -7 14 -5 -3 2 -11 9 -19 17 -17 7 2 17 -3 21 -10 7 -11 9 -11 9 0 0 7 5
10 10 7 6 -3 10 -13 10 -21 0 -8 -4 -12 -10 -9 -7 4 -7 -3 0 -19 6 -17 6 -26
0 -26 -6 0 -15 12 -20 26 -10 26 -41 31 -46 6 -1 -7 0 -8 3 -2 2 5 11 10 19
10 10 0 12 -9 9 -32 -4 -22 -3 -27 3 -15 7 17 9 18 21 3 17 -20 10 -28 -26
-29 -21 -1 -29 -7 -29 -20 0 -17 1 -17 12 -2 8 11 14 13 19 5 10 -16 -14 -40
-33 -33 -13 4 -14 3 -3 -5 7 -5 10 -15 7 -21 -4 -6 0 -11 9 -11 11 0 15 5 12
14 -3 8 1 20 9 26 8 7 14 19 14 27 0 10 7 14 18 11 15 -4 18 -1 14 20 -4 19
-2 23 9 17 12 -8 12 -6 0 8 -8 10 -11 21 -7 25 4 4 14 -1 21 -12 13 -18 14
-17 20 5 3 13 7 37 8 53 1 16 9 32 16 34 10 3 12 -1 9 -16 -6 -20 6 -24 30 -9
8 6 12 1 12 -13 0 -16 -4 -20 -16 -16 -8 3 -21 0 -27 -7 -17 -17 -20 -47 -6
-47 7 0 9 3 6 6 -10 10 13 45 24 38 6 -3 8 -12 5 -19 -2 -7 2 -16 10 -19 16
-6 19 -36 4 -36 -5 0 -10 6 -10 13 0 8 -3 7 -10 -3 -6 -9 -6 -18 0 -24 13 -13
13 -26 0 -26 -5 0 -16 12 -24 28 -8 15 -15 23 -16 19 0 -5 5 -18 11 -29 8 -15
8 -22 -1 -28 -8 -5 -7 -9 5 -13 9 -4 14 -3 11 2 -3 5 4 11 15 14 14 4 20 11
16 21 -7 17 20 30 27 13 3 -7 5 -6 5 4 1 8 -6 24 -14 35 -16 21 -20 59 -6 50
8 -6 6 17 -5 53 -4 11 -7 10 -18 -4 -12 -17 -13 -17 -19 5 -4 15 -11 21 -21
17 -23 -9 -30 12 -10 28 20 15 16 19 -10 9 -9 -3 -16 -14 -16 -24 0 -27 -20
-36 -27 -11 -4 17 -9 19 -24 10 -16 -8 -19 -6 -19 10 0 11 6 21 13 24 6 3 2 4
-11 4 -12 -1 -28 -5 -35 -10z"/>
<path d="M1745 11727 c-4 -20 -12 -37 -19 -37 -6 0 -5 -4 3 -9 8 -5 11 -16 8
-25 -4 -9 -3 -16 2 -16 4 0 13 -10 19 -22 11 -22 11 -22 6 3 -3 15 -1 30 5 33
10 7 16 -7 11 -29 -1 -5 2 -7 6 -2 11 11 12 47 2 53 -14 9 -9 21 10 26 23 6
57 -17 47 -31 -10 -16 -23 -13 -28 7 -2 9 -4 1 -3 -20 1 -20 6 -36 11 -35 12
2 7 -43 -6 -59 -14 -18 -14 -71 1 -99 12 -23 12 -28 0 -35 -11 -7 -11 -10 -2
-10 10 0 10 -5 2 -21 -10 -17 -8 -21 9 -26 11 -3 18 -9 15 -14 -3 -5 -10 -7
-15 -4 -5 4 -9 2 -9 -3 0 -6 7 -12 15 -16 8 -3 15 -14 15 -25 0 -11 4 -22 9
-25 16 -10 41 5 41 25 0 10 7 19 15 19 8 0 15 7 15 17 0 14 -2 14 -21 -3 l-21
-19 6 35 c5 26 4 31 -3 20 -6 -8 -11 -23 -11 -33 0 -25 -25 -16 -26 9 -1 27
13 42 47 49 16 4 29 11 29 16 0 13 -24 11 -37 -2 -14 -14 -53 -2 -53 17 0 8 7
14 15 14 8 0 15 -8 15 -17 0 -15 2 -14 14 3 13 17 13 20 -2 25 -9 3 -22 4 -29
2 -6 -3 -16 4 -21 14 -8 17 -8 27 -4 76 2 21 22 23 22 2 0 -8 -5 -15 -10 -15
-7 0 -7 -6 -1 -19 6 -10 8 -21 5 -24 -3 -3 0 -8 7 -12 9 -6 10 -1 6 17 -7 26
16 69 29 55 4 -4 3 -12 -3 -18 -8 -8 -8 -20 -1 -39 9 -27 10 -28 29 -12 10 9
19 21 19 26 0 5 -9 1 -20 -9 -19 -17 -20 -17 -20 -1 0 10 9 20 20 23 11 3 20
9 20 14 0 5 -7 6 -15 3 -18 -7 -20 17 -4 33 8 8 8 13 0 18 -6 3 -10 1 -9 -6 2
-6 -3 -14 -9 -16 -7 -3 -13 2 -13 10 0 17 24 40 33 31 3 -3 3 3 0 14 -2 11 0
23 6 26 6 4 11 18 11 32 0 14 -4 23 -9 20 -5 -3 -7 -15 -4 -26 3 -11 0 -20 -6
-20 -11 0 -15 12 -12 40 2 13 1 13 -8 0 -6 -8 -8 -23 -5 -33 5 -14 1 -18 -13
-15 -12 2 -18 11 -17 30 1 18 -3 25 -12 21 -8 -3 -14 0 -14 6 0 13 -40 10 -56
-4 -8 -6 -9 -14 -3 -21 6 -7 4 -16 -5 -23 -11 -10 -15 -8 -18 6 -7 34 4 62 25
65 11 2 23 10 25 18 5 13 3 13 -12 1 -15 -12 -19 -13 -26 -1 -6 10 -10 3 -15
-23z"/>
<path d="M4850 11730 c-49 -4 -65 -9 -65 -20 0 -12 17 -15 92 -15 l92 0 -4
-84 c-3 -91 0 -111 20 -111 20 0 25 25 25 130 l0 98 -47 4 c-27 1 -77 1 -113
-2z"/>
<path d="M4428 11698 c-2 -18 -2 -70 0 -116 3 -71 6 -83 20 -80 14 3 17 19 20
96 l3 92 89 0 c83 0 90 1 90 20 0 19 -7 20 -109 20 l-110 0 -3 -32z"/>
<path d="M5500 11590 c-1 -41 -2 -86 -2 -100 2 -75 2 -1075 -1 -1378 -1 -193
1 -352 5 -352 4 0 7 109 8 243 0 133 3 499 5 812 3 314 1 633 -4 710 -7 116
-8 127 -11 65z"/>
<path d="M1174 11559 c-16 -5 -39 -19 -51 -31 -31 -35 -56 -78 -45 -78 5 0 15
14 22 30 38 92 181 103 242 20 64 -87 63 -381 0 -470 -29 -39 -80 -62 -131
-57 -57 6 -90 32 -121 93 -21 42 -26 68 -31 179 l-7 130 2 -135 c3 -147 13
-186 61 -234 33 -33 65 -46 113 -46 76 0 136 57 163 153 15 56 12 252 -5 315
-31 115 -107 162 -212 131z"/>
<path d="M1558 11550 c-50 -27 -75 -66 -94 -146 -18 -79 -15 -263 6 -326 25
-73 85 -118 157 -118 98 0 155 73 174 222 21 165 -17 324 -84 359 -20 10 -19
9 4 -17 58 -63 64 -87 64 -249 0 -167 -12 -220 -63 -268 -61 -58 -169 -42
-218 33 -36 54 -51 182 -37 304 15 125 48 187 110 202 13 4 23 10 23 15 0 11
2 12 -42 -11z"/>
<path d="M1583 11443 c-15 -22 -19 -54 -21 -163 -4 -153 6 -205 43 -222 39
-18 71 10 86 75 17 78 8 277 -14 311 -24 36 -70 36 -94 -1z m86 -18 c34 -70
22 -309 -17 -348 -27 -26 -58 -9 -73 41 -14 48 -7 275 9 315 17 39 61 35 81
-8z"/>
<path d="M4966 11364 c-3 -9 -6 -54 -6 -100 l0 -84 -90 0 c-83 0 -90 -1 -90
-20 0 -19 7 -20 113 -20 l114 0 -1 111 c-1 92 -4 112 -17 120 -12 6 -19 4 -23
-7z"/>
<path d="M4427 11358 c-2 -8 -5 -59 -5 -115 l-1 -102 52 -3 c29 -2 80 -1 115
0 53 3 62 6 62 23 0 17 -8 19 -90 19 l-89 0 -3 92 c-2 76 -6 93 -19 96 -9 2
-19 -3 -22 -10z"/>
<path d="M4770 10694 c-7 -16 -6 -32 0 -44 9 -16 24 -18 142 -19 139 0 158 5
158 44 0 39 -19 44 -159 44 -132 0 -132 0 -141 -25z"/>
<path d="M4772 9828 c-7 -7 -12 -21 -12 -33 0 -30 19 -45 57 -45 23 0 33 5 33
15 0 9 -9 15 -25 15 -16 0 -25 6 -25 15 0 11 11 15 41 15 32 0 42 -4 46 -20 3
-11 11 -20 18 -20 8 0 17 9 20 20 5 16 15 20 51 20 32 0 44 -4 44 -15 0 -8 -9
-15 -20 -15 -11 0 -20 -7 -20 -16 0 -11 9 -14 36 -12 41 3 57 28 43 66 -7 20
-15 22 -72 22 -35 0 -68 -5 -74 -11 -8 -8 -13 -8 -17 0 -10 15 -109 14 -124
-1z"/>
<path d="M4794 9612 c-31 -4 -46 -44 -28 -71 14 -20 24 -21 142 -21 70 0 132
4 138 8 19 12 25 47 12 65 -11 13 -35 17 -128 19 -63 2 -125 2 -136 0z"/>
<path d="M5497 9522 c-7 -9 -9 -1417 -3 -1411 6 5 17 1419 11 1419 -2 0 -6 -3
-8 -8z"/>
<path d="M3685 9250 c-4 -6 -12 -7 -18 -4 -7 3 1 -5 16 -19 17 -15 26 -31 22
-38 -4 -6 -2 -15 5 -19 11 -7 -41 -75 -106 -138 -13 -13 -24 -27 -24 -32 0 -6
-4 -10 -10 -10 -19 0 -9 16 61 94 39 43 68 81 65 84 -4 3 -13 -3 -20 -14 -8
-10 -18 -16 -22 -11 -4 4 3 18 16 32 22 23 22 27 8 41 -14 14 -20 11 -63 -33
-26 -26 -45 -41 -42 -32 3 9 1 21 -4 26 -6 6 -4 15 7 24 15 13 16 11 9 -11 -7
-22 -3 -21 30 13 20 21 34 41 30 45 -4 4 -10 2 -12 -5 -2 -7 -11 -9 -18 -7
-21 9 -87 -16 -108 -40 -13 -15 -20 -18 -24 -8 -4 10 -9 9 -20 -5 -14 -17 -14
-17 -9 0 5 15 2 16 -14 7 -11 -6 -20 -13 -20 -16 0 -3 5 -2 10 1 28 17 3 -17
-50 -69 -33 -33 -60 -55 -60 -49 0 5 16 25 36 43 26 23 33 35 24 40 -7 5 -9
13 -5 21 5 8 -1 6 -12 -4 -12 -11 -24 -14 -27 -9 -3 6 -15 8 -26 5 -12 -3 -18
-8 -15 -11 2 -3 -1 -12 -8 -21 -11 -14 -10 -15 8 -1 11 8 23 20 27 25 5 6 8 5
8 -3 0 -7 -10 -20 -21 -30 -20 -16 -63 -60 -123 -125 -14 -15 -26 -32 -26 -38
0 -5 -5 -9 -11 -9 -6 0 -8 8 -4 19 3 11 1 22 -5 26 -6 3 17 32 52 65 37 36 65
55 69 49 10 -16 18 3 10 24 -6 16 -12 13 -51 -22 -47 -42 -77 -56 -45 -21 18
20 18 21 0 14 -13 -5 -16 -4 -11 5 5 7 13 10 20 8 6 -3 21 2 31 10 19 14 17
14 -15 7 -19 -4 -41 -7 -47 -7 -7 0 -13 -5 -14 -11 -1 -21 -58 -58 -74 -49
-13 8 -13 12 5 31 17 18 18 22 5 22 -8 0 -15 -4 -15 -9 0 -5 -27 -31 -59 -57
-33 -27 -65 -59 -72 -71 -7 -13 -16 -23 -21 -23 -13 0 -9 15 10 36 49 55 55
76 7 29 -14 -14 -25 -22 -25 -17 0 4 14 21 30 37 23 22 33 26 39 17 6 -10 11
-10 21 3 11 13 10 15 -6 9 -16 -6 -17 -5 -6 7 23 25 12 32 -14 8 -18 -16 -28
-20 -31 -12 -3 9 -10 10 -24 3 -11 -7 -19 -7 -19 -1 0 5 6 11 13 14 6 2 9 8 5
11 -3 4 -16 -2 -28 -14 -12 -12 -25 -19 -28 -15 -4 3 0 10 8 15 13 8 12 10 -2
10 -10 0 -18 -4 -18 -9 0 -5 -7 -12 -16 -15 -14 -5 -15 -4 -5 8 9 11 8 15 -4
20 -10 3 -15 -1 -15 -12 0 -14 -2 -14 -9 -3 -7 11 -14 10 -40 -8 -31 -22 -43
-17 -18 8 10 10 9 12 -2 9 -7 -2 -47 -35 -88 -74 -40 -39 -76 -67 -79 -63 -2
4 0 10 6 14 15 9 12 25 -4 19 -20 -8 -29 -36 -15 -45 9 -5 4 -20 -17 -53 -16
-25 -32 -46 -36 -46 -5 0 -8 -6 -8 -14 0 -7 -7 -19 -15 -26 -21 -17 -19 -3 6
37 16 25 18 38 11 45 -18 18 62 122 86 113 7 -2 23 5 35 16 12 12 37 32 55 46
17 14 32 30 32 35 0 5 -7 2 -16 -6 -20 -21 -35 -20 -27 1 5 12 -1 11 -24 -7
-17 -12 -36 -19 -43 -15 -7 4 -24 -5 -41 -21 -16 -15 -32 -25 -35 -21 -4 3 8
20 26 37 18 17 30 33 27 36 -3 3 -24 -14 -46 -37 -22 -24 -44 -40 -48 -35 -4
4 8 21 26 37 19 16 32 32 29 35 -12 11 -175 -166 -210 -227 -12 -21 -25 -39
-30 -39 -4 0 -8 -9 -8 -19 0 -11 -5 -23 -10 -26 -6 -4 -24 -34 -42 -68 -17
-34 -34 -64 -38 -67 -13 -10 -20 -44 -10 -50 6 -4 -9 -33 -37 -71 -57 -79 -52
-74 -60 -66 -3 4 3 17 15 30 12 13 22 27 22 32 0 5 -14 -7 -30 -26 -17 -18
-26 -35 -20 -37 19 -7 10 -22 -12 -19 -16 1 -23 -3 -23 -15 0 -23 -25 -48 -26
-28 -1 8 -4 4 -8 -9 -4 -14 -12 -26 -19 -29 -25 -8 -10 25 36 75 67 73 85 96
102 127 17 33 27 18 10 -16 -9 -18 -5 -16 14 7 26 30 34 51 16 40 -5 -3 -10
-1 -10 5 0 12 49 101 61 110 3 3 9 15 13 27 4 13 23 48 42 80 19 31 34 61 34
66 0 4 5 5 10 2 6 -3 10 1 10 11 0 9 41 59 91 111 49 52 88 97 85 100 -3 3
-19 -9 -36 -27 -17 -18 -34 -30 -37 -26 -4 3 -1 12 5 18 8 8 7 15 -6 24 -19
15 -33 18 -29 6 3 -10 -63 -75 -70 -68 -3 3 9 19 27 36 18 17 30 34 26 37 -4
4 -20 -8 -36 -27 -16 -19 -32 -31 -36 -28 -3 4 1 14 10 23 9 9 16 21 16 27 0
5 -21 -11 -46 -37 -26 -25 -43 -49 -39 -53 4 -4 15 4 26 17 11 13 23 21 26 17
4 -4 -5 -18 -19 -31 -17 -16 -25 -31 -21 -43 2 -11 0 -23 -7 -27 -18 -11 -24
3 -9 22 12 14 12 16 0 8 -11 -6 -13 -4 -7 10 4 11 2 21 -5 26 -8 4 -1 19 22
44 19 20 38 44 43 53 5 10 -10 -3 -32 -28 -40 -43 -59 -46 -27 -4 32 42 12 33
-36 -16 -28 -28 -53 -49 -57 -46 -3 4 11 23 31 44 20 21 37 42 37 47 -1 6 -12
-3 -25 -20 -13 -16 -27 -26 -31 -22 -4 4 -2 13 4 19 7 7 12 17 12 22 0 6 -32
-23 -71 -62 -39 -40 -74 -70 -77 -67 -3 3 4 15 15 28 11 12 18 28 16 35 -3 7
5 24 18 38 12 13 20 26 18 28 -6 6 -115 -100 -123 -119 -6 -15 -26 -21 -26 -7
0 4 23 31 50 60 27 29 50 57 50 61 0 5 -23 -14 -51 -42 -47 -48 -56 -39 -10
10 12 12 21 27 21 32 0 16 -152 -146 -174 -185 -11 -19 -24 -34 -28 -34 -13 0
-9 17 7 34 8 8 15 18 15 23 0 4 32 40 70 78 39 39 70 75 70 80 -1 6 -7 2 -14
-7 -17 -23 -30 -23 -22 -1 5 13 -1 10 -20 -7 l-26 -25 7 25 c6 21 5 23 -6 12
-7 -7 -14 -22 -14 -34 0 -12 -6 -23 -12 -25 -7 -3 -13 0 -13 6 0 6 5 11 10 11
6 0 10 4 10 10 0 5 -8 6 -17 3 -16 -6 -16 -5 -4 10 29 36 -9 15 -60 -33 -53
-50 -83 -63 -35 -15 14 14 26 29 26 32 0 4 -16 -8 -35 -27 -24 -23 -31 -36
-23 -41 9 -6 9 -11 -1 -23 -8 -9 -18 -16 -23 -16 -6 0 -6 6 1 14 9 11 9 15 -1
19 -9 3 0 18 25 44 20 21 37 43 37 48 0 5 -7 0 -15 -11 -12 -15 -16 -16 -23
-6 -7 11 -11 10 -16 -3 -4 -11 -12 -15 -23 -11 -11 5 -31 -8 -65 -41 -26 -26
-51 -44 -54 -40 -4 4 11 24 33 44 22 21 31 31 21 23 -15 -11 -21 -12 -27 -2
-6 9 -23 -1 -62 -35 -70 -63 -85 -79 -115 -133 -13 -25 -44 -76 -69 -115 -24
-38 -57 -92 -74 -120 -17 -27 -40 -61 -52 -75 l-20 -25 6 25 c6 21 3 20 -15
-9 -11 -18 -23 -31 -26 -29 -2 3 12 31 32 62 24 36 40 52 45 45 5 -8 10 -5 18
9 15 29 14 37 -4 22 -9 -7 -3 10 12 39 25 47 50 71 37 36 -4 -8 -2 -15 2 -15
10 1 55 92 49 98 -2 3 -12 -9 -22 -27 -10 -17 -22 -31 -26 -31 -9 0 -10 -1 61
109 32 51 57 80 61 73 4 -8 26 8 61 45 l55 56 -57 -47 c-32 -27 -58 -44 -58
-39 0 5 16 22 35 38 20 15 33 30 31 33 -8 7 -67 -46 -105 -95 -20 -25 -37 -40
-39 -33 -3 7 20 36 49 66 29 30 48 54 42 54 -7 0 -15 -5 -18 -10 -4 -6 -11 -8
-16 -5 -13 8 -43 -15 -79 -60 -30 -37 -44 -37 -15 1 26 35 16 35 -15 1 -30
-34 -39 -54 -20 -42 21 13 8 -13 -49 -101 -32 -50 -60 -95 -62 -100 -16 -37
-143 -216 -146 -206 -3 6 -9 10 -14 6 -5 -3 -9 -2 -9 2 0 12 95 163 147 233 2
2 6 2 9 -2 3 -3 -6 -22 -21 -42 -15 -19 -25 -38 -23 -41 7 -6 84 108 93 136 4
11 11 20 16 20 5 0 9 5 9 10 0 6 10 24 22 40 12 16 19 32 16 35 -5 5 -66 -83
-80 -116 -7 -19 -28 -35 -28 -22 0 4 32 55 71 113 47 70 60 95 40 76 -17 -17
-31 -26 -31 -21 0 4 -10 0 -22 -11 -21 -19 -21 -19 -15 1 5 13 -3 7 -22 -14
-20 -25 -30 -30 -33 -20 -3 8 -5 1 -5 -14 0 -26 1 -27 17 -12 9 8 19 13 22 9
3 -3 15 7 27 22 12 15 23 25 25 23 6 -6 -147 -218 -157 -219 -5 0 1 14 13 31
12 16 20 32 18 35 -5 4 -68 -80 -68 -91 0 -4 7 -2 15 5 8 7 15 9 15 5 0 -7
-70 -125 -80 -135 -3 -3 -15 -27 -28 -54 -13 -26 -25 -46 -28 -43 -6 6 28 76
76 156 16 29 30 55 30 58 0 13 -18 -12 -45 -62 -30 -55 -55 -86 -55 -68 0 6 6
18 13 25 6 7 23 35 37 61 13 26 28 47 32 47 5 0 8 5 8 10 0 11 62 103 91 136
21 22 25 39 8 28 -8 -4 -9 1 -4 17 l7 24 -17 -23 c-9 -12 -21 -19 -27 -16 -6
4 -31 -15 -55 -42 -25 -27 -42 -43 -38 -36 3 6 2 12 -3 12 -5 0 -14 -12 -20
-26 -7 -14 -16 -23 -20 -20 -5 3 -19 -8 -31 -25 -12 -16 -26 -27 -30 -24 -11
6 -33 -20 -30 -37 4 -22 -13 -51 -21 -38 -5 8 -9 7 -13 -5 -4 -9 -3 -13 3 -10
14 9 12 -1 -6 -36 -18 -35 -31 -33 -14 3 11 22 11 22 -9 -2 -22 -27 -28 -45
-11 -35 5 3 10 4 10 2 0 -8 -151 -317 -155 -317 -8 0 19 63 75 177 32 65 57
120 55 121 -2 2 -15 -19 -30 -47 -14 -29 -30 -49 -35 -46 -5 3 -7 0 -4 -8 3
-8 -6 -37 -19 -64 -90 -176 -159 -412 -171 -578 -3 -47 -2 -59 3 -35 l8 35 2
-42 c1 -32 -2 -41 -13 -37 -11 4 -13 -10 -11 -73 5 -143 12 -202 24 -216 6 -8
8 -23 4 -32 -5 -13 -3 -16 7 -10 10 6 10 4 3 -10 -11 -19 -6 -55 8 -55 4 0 10
10 12 23 2 12 3 9 2 -8 -2 -16 -6 -39 -10 -50 -6 -17 -5 -17 5 -5 9 12 10 5 8
-31 -2 -36 0 -46 12 -45 11 1 17 18 21 66 l5 65 2 -67 c1 -37 -2 -70 -8 -73
-5 -3 -10 -12 -10 -18 0 -7 4 -6 10 3 7 11 10 1 11 -35 1 -44 2 -46 9 -20 6
25 8 22 9 -24 2 -82 10 -56 12 38 1 55 -2 86 -10 91 -8 5 -10 23 -5 58 9 68
22 67 18 0 -2 -36 1 -28 8 25 6 42 14 77 18 77 4 0 3 -21 -2 -47 -10 -54 -19
-323 -11 -337 3 -4 10 -2 15 5 7 10 8 3 4 -21 -5 -33 -5 -34 9 -16 14 18 15
16 15 -28 0 -27 4 -45 10 -41 5 3 6 13 3 22 -4 10 -2 14 4 10 5 -3 10 -21 11
-38 0 -18 6 -35 12 -39 10 -6 17 -25 19 -53 1 -5 5 -6 10 -2 5 3 12 -5 14 -17
2 -13 3 -7 1 12 -2 19 -8 36 -14 38 -5 2 -10 13 -9 25 0 22 0 22 9 0 5 -13 14
-23 20 -23 5 0 10 -19 11 -42 1 -37 2 -39 9 -18 7 23 8 23 9 3 1 -12 -4 -25
-10 -28 -6 -5 -4 -11 7 -19 9 -7 14 -18 10 -24 -4 -7 -2 -12 4 -12 7 0 9 13 5
38 -4 27 -3 33 4 21 5 -8 11 -34 12 -56 2 -28 7 -39 15 -36 7 2 14 -6 17 -19
l4 -23 2 24 c0 13 -6 29 -14 35 -15 11 -21 84 -17 205 2 54 2 55 21 35 18 -20
26 -74 10 -74 -4 0 -10 12 -12 28 -2 15 -5 -19 -6 -74 -1 -78 2 -104 13 -114
8 -6 16 -26 18 -43 2 -19 8 -31 16 -30 6 2 12 -5 12 -15 0 -14 2 -15 10 -2 7
12 10 8 10 -15 0 -23 3 -27 10 -15 9 13 14 7 11 -12 0 -5 5 -7 12 -5 6 1 11
-6 11 -15 -1 -10 4 -14 12 -11 8 3 14 -1 14 -11 0 -14 12 -21 33 -17 4 1 10
-6 13 -14 4 -8 13 -15 21 -15 8 0 11 -5 8 -10 -4 -6 -3 -10 2 -9 21 4 24 -2
12 -18 -13 -16 -12 -17 3 -5 15 12 27 6 103 -54 47 -37 85 -72 85 -77 0 -6 3
-7 7 -4 3 4 12 2 19 -3 21 -18 128 -68 170 -79 35 -9 37 -9 20 4 -11 8 -28 15
-38 15 -25 0 -23 15 2 17 11 1 20 -3 20 -8 0 -6 4 -8 9 -4 5 3 16 -1 23 -9 8
-7 31 -15 51 -18 29 -3 37 0 37 12 0 9 3 11 8 5 7 -10 36 -17 82 -19 17 -1 24
4 22 13 -2 11 0 12 10 4 7 -6 25 -13 40 -17 14 -3 33 -9 42 -12 10 -4 16 -1
16 9 0 14 5 14 47 0 34 -12 50 -13 64 -5 13 9 18 8 23 -3 3 -8 12 -12 20 -9 8
3 29 -1 45 -9 19 -10 31 -11 33 -5 3 7 12 7 27 -2 21 -11 23 -10 18 3 -5 13
-2 15 16 8 35 -14 39 -13 48 1 6 9 9 10 9 1 0 -7 7 -10 15 -7 8 4 27 -1 41
-10 13 -10 33 -14 43 -11 11 3 26 -1 35 -11 10 -9 20 -14 23 -11 3 4 -8 14
-26 24 -17 10 -31 22 -31 26 0 9 10 4 52 -25 15 -11 27 -24 25 -30 -1 -6 4
-13 12 -16 8 -3 11 0 7 7 -10 16 -2 14 40 -11 26 -16 39 -19 42 -10 2 7 8 10
13 6 5 -3 9 -3 9 -1 0 3 -26 22 -57 43 -32 22 -60 41 -63 44 -3 3 -25 18 -48
33 -24 16 -42 31 -39 33 2 3 67 -37 144 -88 195 -131 223 -148 237 -148 7 0
18 -6 25 -12 12 -11 13 -10 7 6 -5 14 -2 17 9 12 8 -3 22 -9 32 -13 12 -5 14
-3 8 7 -5 8 -3 11 6 8 8 -3 15 -10 15 -16 1 -7 2 -17 3 -23 0 -5 6 -7 11 -4 6
4 8 11 5 16 -8 11 -3 11 29 -1 15 -5 36 -6 49 -1 25 9 50 4 41 -10 -3 -5 0 -9
5 -9 6 0 11 5 11 11 0 5 5 7 10 4 6 -3 10 -3 10 2 0 4 -19 16 -43 26 -56 23
-167 95 -167 107 0 6 12 3 28 -6 l27 -16 -25 21 c-28 23 -40 26 -40 11 0 -11
-42 13 -74 42 -11 10 -28 20 -38 24 -10 3 -18 9 -18 14 0 5 16 0 35 -11 19
-12 35 -17 35 -12 0 6 -16 18 -35 29 -19 10 -35 22 -35 26 0 9 96 -48 124 -74
11 -10 25 -18 32 -18 7 0 15 -6 17 -12 4 -8 6 -7 6 4 1 9 7 19 14 22 10 5 10
7 0 12 -7 3 -13 11 -13 17 0 6 7 4 17 -5 12 -13 14 -20 5 -30 -6 -8 -10 -26
-8 -42 3 -28 19 -41 117 -92 27 -14 49 -32 49 -40 0 -8 8 -14 18 -13 10 0 12
3 5 6 -7 2 -13 10 -13 17 0 7 -12 18 -26 25 -15 6 -24 14 -21 17 3 3 22 -4 44
-15 21 -11 32 -20 25 -21 -18 0 11 -30 30 -30 10 0 9 3 -2 10 -18 11 -8 23 14
14 9 -3 13 -11 10 -18 -3 -6 2 -2 11 9 l16 20 16 -20 c15 -20 15 -20 10 3 -5
21 -3 23 16 18 12 -3 29 -1 37 4 10 7 11 10 3 10 -7 0 -13 4 -13 10 0 5 7 7
16 3 10 -4 14 -14 11 -29 -2 -13 0 -24 4 -24 8 0 13 15 10 33 -2 12 17 8 33
-8 13 -13 15 -13 18 2 3 15 4 15 20 0 23 -23 31 -21 23 4 -5 16 -4 19 5 14 9
-5 11 -4 6 4 -4 6 -21 18 -38 27 -16 8 -27 18 -25 21 3 3 23 -5 45 -17 29 -17
38 -27 35 -41 -3 -11 0 -19 7 -19 7 0 10 7 6 16 -5 12 -2 15 11 10 15 -5 15
-4 -1 9 -22 17 -17 29 8 19 9 -3 16 -15 16 -25 0 -10 4 -19 10 -19 5 0 6 7 3
17 -4 11 -3 14 5 9 7 -4 12 -4 12 1 0 4 -15 15 -32 23 -18 8 -34 21 -36 28 -2
8 11 4 35 -9 l38 -21 -27 25 c-15 14 -33 27 -40 30 -7 2 -11 7 -7 10 3 4 21
-5 41 -19 33 -23 37 -31 35 -65 -2 -24 2 -39 9 -39 8 0 10 12 7 35 -4 30 -2
34 12 29 13 -5 14 -8 3 -15 -10 -7 -9 -9 4 -9 9 0 18 -3 21 -7 2 -5 2 -3 1 4
-2 6 2 13 8 15 6 2 -3 10 -20 17 -18 8 -32 17 -32 22 0 5 -5 9 -11 9 -10 0
-129 89 -129 96 0 10 18 2 40 -19 33 -30 100 -71 106 -64 3 3 -8 13 -25 23
-17 10 -31 22 -31 27 0 4 10 1 22 -7 24 -17 38 -20 38 -8 0 4 -14 15 -31 25
-19 10 -29 23 -26 31 6 14 -10 36 -26 36 -5 0 -3 -7 4 -17 16 -18 8 -16 -38
12 -18 11 -33 24 -33 29 0 4 12 1 26 -9 14 -9 28 -14 31 -11 3 3 -8 13 -26 23
-17 10 -31 22 -31 26 0 5 6 5 13 1 18 -11 165 -112 217 -149 25 -17 53 -35 63
-38 10 -4 16 -11 12 -16 -3 -5 -1 -12 5 -16 5 -3 10 2 10 12 0 11 -20 30 -50
48 -28 16 -50 33 -50 38 0 11 3 9 62 -28 26 -17 49 -37 52 -45 3 -9 4 -7 3 5
-1 10 -18 29 -37 42 -19 12 -47 31 -62 42 -32 25 -46 27 -27 4 8 -9 10 -14 4
-12 -40 18 -65 33 -65 41 0 11 17 10 25 -2 3 -5 11 -10 17 -10 6 0 3 8 -8 18
-20 19 -48 26 -37 9 6 -10 4 -10 -39 12 -29 15 -39 38 -12 27 9 -3 12 -2 9 5
-4 6 -13 8 -21 5 -24 -9 -41 4 -41 30 0 20 2 22 14 13 11 -10 11 -14 1 -20
-10 -7 -10 -9 2 -10 8 -1 20 -2 25 -4 6 -1 16 -3 23 -3 6 -1 12 -11 12 -22 0
-11 4 -20 10 -20 5 0 8 6 6 13 -1 6 -1 9 1 5 3 -5 10 -8 15 -8 6 0 34 -17 62
-38 28 -21 70 -50 93 -63 35 -19 43 -30 44 -54 l2 -30 4 28 c3 18 9 25 16 20
7 -4 6 0 -2 10 -15 19 -1 23 17 5 9 -9 12 -8 12 5 0 11 6 15 18 11 16 -5 16
-5 0 9 -21 16 -24 32 -5 21 6 -4 3 2 -7 14 -24 27 -12 28 21 2 14 -11 32 -20
39 -20 8 0 14 -8 14 -17 0 -15 2 -16 10 -3 6 9 5 17 -3 23 -7 5 -1 6 14 3 19
-4 29 -1 33 9 3 8 1 15 -3 15 -5 0 -7 9 -4 20 4 16 9 18 24 9 11 -5 17 -14 14
-19 -3 -4 4 -6 16 -3 18 5 19 7 5 15 -9 5 -16 13 -16 17 0 18 34 21 59 6 21
-13 19 -10 -7 15 -19 17 -31 34 -28 37 3 3 13 -2 22 -11 20 -20 32 -13 14 9
-24 29 -4 17 58 -35 9 -8 12 -4 12 20 0 16 4 30 9 30 16 0 31 -27 25 -46 -5
-15 -2 -14 11 4 19 25 9 46 -26 57 -10 4 -19 13 -19 21 0 13 2 13 16 0 8 -9
25 -21 37 -28 22 -11 22 -11 3 11 -22 24 -11 29 15 5 10 -9 15 -23 12 -32 -3
-13 -2 -14 4 -4 6 7 17 10 28 6 10 -4 -13 23 -51 60 -38 37 -59 62 -46 56 30
-15 28 -4 -5 25 -28 25 -57 35 -35 13 7 -7 12 -16 12 -22 0 -5 -9 0 -20 12
-21 22 -27 37 -10 27 6 -3 10 -2 10 4 0 5 -6 11 -12 14 -7 2 -11 7 -8 10 3 3
25 -13 50 -35 127 -112 236 -194 185 -138 -10 11 -15 23 -12 27 4 3 16 -4 27
-17 16 -18 20 -20 20 -7 0 21 28 11 32 -11 2 -12 6 -13 11 -5 4 7 -12 30 -43
59 -27 26 -50 51 -50 56 0 8 36 -21 98 -79 18 -18 39 -33 45 -33 7 0 -4 14
-23 31 -71 62 -120 109 -120 114 0 8 141 -107 159 -129 7 -9 16 -16 20 -16 9
0 7 43 -3 58 -12 20 10 13 30 -10 19 -21 19 -21 0 -14 -19 7 -19 6 -1 -14 14
-16 20 -17 27 -8 6 10 12 8 23 -6 13 -17 15 -17 15 -4 0 9 -12 26 -27 38 -23
18 -25 23 -13 31 11 8 12 12 3 16 -18 7 -16 20 2 20 8 0 12 -4 9 -8 -2 -4 1
-11 7 -15 8 -5 8 -9 -2 -14 -10 -7 -9 -11 2 -22 27 -24 58 -38 74 -32 22 9 19
18 -20 72 -50 71 -112 199 -140 291 -86 290 -48 588 107 834 17 26 33 46 35
43 3 -3 -11 -31 -31 -63 -174 -284 -190 -632 -45 -943 36 -77 81 -149 92 -150
5 0 -1 13 -12 29 -12 16 -21 34 -21 40 0 6 -4 11 -8 11 -18 0 -97 203 -118
304 -17 78 -22 247 -10 341 19 153 120 373 232 503 48 57 57 46 9 -12 -21 -26
-33 -46 -29 -46 5 0 19 15 32 34 12 18 45 57 73 87 28 30 52 63 53 73 0 11 7
21 15 24 10 3 12 0 7 -14 -7 -17 -6 -17 14 1 25 22 25 26 3 18 -16 -6 -16 -5
-4 11 8 9 20 15 28 12 17 -7 43 3 43 16 0 6 -7 5 -15 -2 -9 -7 -18 -10 -21 -8
-8 9 124 101 213 148 46 24 81 45 79 47 -6 6 -124 -55 -174 -89 -24 -17 -46
-28 -49 -25 -8 9 101 76 194 119 109 51 182 76 211 72 20 -4 22 -1 17 18 -28
91 -193 316 -296 402 -58 48 -189 131 -304 192 -161 85 -227 132 -345 247 -92
91 -172 159 -114 97 l21 -22 -24 -24 c-28 -28 -45 -24 -20 4 21 23 22 39 3 23
-12 -10 -15 -8 -18 11 l-3 23 -20 -24 c-46 -55 -65 -73 -65 -64 0 9 10 23 50
70 14 17 12 39 -5 53 -10 9 -15 9 -15 1 0 -6 -5 -11 -11 -11 -6 0 -8 9 -4 20
8 26 -7 26 -23 -1 -7 -12 -16 -18 -19 -15 -3 3 0 12 7 21 7 9 10 18 7 21 -5 6
-18 -7 -66 -66 -16 -20 -20 -22 -21 -8 0 9 6 21 13 25 29 19 49 83 26 83 -6 0
-9 -6 -6 -14 3 -8 -24 -49 -65 -97 -39 -46 -76 -93 -84 -103 -7 -11 -17 -17
-20 -13 -4 4 1 16 11 27 15 16 16 22 5 35 -11 13 -10 19 5 35 10 11 15 20 11
20 -16 0 -115 -114 -166 -190 -8 -13 -27 -37 -41 -54 -14 -17 -29 -38 -33 -46
-8 -17 -20 -38 -59 -97 -15 -24 -24 -49 -20 -58 4 -11 1 -15 -9 -13 -19 4 -70
-56 -63 -74 3 -8 -2 -21 -11 -29 -16 -13 -17 -12 -10 6 6 17 4 16 -19 -5 -14
-13 -23 -30 -20 -38 3 -7 -2 -20 -10 -28 -8 -9 -15 -12 -15 -7 0 5 5 14 12 21
9 9 9 12 -2 12 -9 0 -7 7 8 23 34 37 158 208 178 246 10 20 46 71 79 115 33
43 67 88 75 100 13 19 55 72 110 138 8 10 18 18 22 18 12 0 2 -71 -11 -80 -8
-4 -9 -10 -4 -13 11 -7 39 17 63 53 8 12 27 36 42 54 15 17 28 39 28 48 0 28
-22 33 -42 8 -12 -15 -15 -26 -8 -30 12 -8 3 -40 -12 -40 -6 0 -8 6 -5 14 3 7
0 19 -6 25 -8 8 -6 16 7 30 17 19 17 21 1 38 -17 16 -17 16 -11 -5 5 -13 3
-22 -3 -22 -6 0 -11 10 -12 23 0 14 -2 17 -6 7 -3 -8 -15 -24 -26 -34 -19 -19
-19 -19 -12 5 4 13 12 27 17 30 6 4 5 9 -3 12 -11 3 -10 6 3 12 21 8 168 -62
164 -79 -2 -6 -1 -8 1 -4 2 4 12 4 21 1 14 -6 15 -4 5 8 -6 8 -49 32 -95 53
-46 21 -92 43 -103 48 -15 8 -17 8 -9 -2 13 -13 -8 -67 -35 -86 -13 -10 -13
-14 -2 -28 12 -14 8 -21 -25 -56 -63 -64 -91 -97 -97 -114 -4 -9 -11 -16 -17
-16 -5 0 -10 -6 -10 -13 0 -7 -8 -20 -17 -28 -10 -9 -24 -24 -30 -35 -7 -10
-29 -41 -48 -69 -37 -52 -42 -65 -25 -65 6 0 10 6 10 13 0 8 9 25 20 38 11 13
23 29 28 34 4 6 11 18 15 28 3 9 11 17 16 17 5 0 13 9 16 20 3 11 11 20 16 20
14 0 11 -15 -8 -38 -42 -50 -70 -89 -101 -140 -18 -30 -39 -61 -47 -69 -8 -8
-15 -19 -15 -24 0 -5 -5 -9 -10 -9 -6 0 -3 11 6 25 8 13 13 29 9 34 -3 7 0 8
9 5 9 -3 16 -2 16 4 0 6 3 19 6 29 5 16 4 16 -10 -1 -9 -11 -16 -16 -16 -12 0
14 55 106 63 106 4 0 7 5 7 11 0 16 128 182 203 262 27 30 34 47 18 47 -7 0
-47 -46 -73 -84 -4 -6 -10 -7 -14 -3 -4 4 4 17 17 30 14 12 28 30 32 40 3 9
12 17 18 17 7 0 9 9 5 24 -4 16 0 28 11 37 14 12 15 11 8 -11 l-7 -25 22 23
c12 12 19 28 17 35 -4 9 -6 9 -6 0 -1 -7 -6 -13 -12 -13 -6 0 -9 7 -6 14 4 10
1 13 -9 9 -7 -3 -14 -9 -14 -14 0 -5 -5 -9 -11 -9 -6 0 -9 7 -6 14 4 11 1 13
-10 9 -12 -5 -15 -2 -10 10 7 19 2 23 -8 7z m-2000 -236 c-15 -15 -23 -29 -18
-33 15 -11 8 -56 -16 -93 -27 -45 -35 -48 -27 -10 6 25 5 26 -9 8 -8 -11 -12
-29 -9 -41 3 -12 -1 -28 -8 -36 -7 -8 -22 -33 -32 -56 -19 -44 -43 -60 -31
-22 5 15 4 19 -4 15 -6 -4 -11 -12 -11 -17 0 -5 -9 -23 -20 -39 -47 -70 -57
-86 -63 -105 -7 -19 -7 -19 8 -1 8 10 16 24 18 30 2 6 8 8 12 4 10 -10 -28
-58 -42 -53 -7 2 -17 -4 -23 -15 -13 -24 -13 -33 0 -25 16 10 12 -4 -12 -35
-12 -17 -26 -30 -31 -30 -5 0 -4 7 3 15 22 26 2 16 -25 -12 -31 -34 -33 -53
-3 -27 22 20 16 4 -11 -28 -20 -23 -26 -23 -28 1 -1 11 15 39 36 63 44 50 119
169 183 288 30 55 48 80 48 67 0 -5 -7 -22 -16 -38 -8 -17 -13 -33 -10 -37 7
-7 7 -7 54 91 2 4 -5 4 -15 0 -17 -7 -17 -6 0 17 9 14 22 35 29 48 12 24 31
31 22 7 -10 -26 10 -16 23 11 10 22 10 24 -3 14 -9 -8 -14 -9 -14 -2 0 6 5 14
10 17 6 3 10 10 10 14 0 10 -31 7 -50 -5 -26 -15 -86 -95 -122 -160 -18 -34
-46 -83 -61 -109 -16 -25 -26 -49 -24 -52 3 -3 13 10 23 29 9 18 19 27 21 21
3 -7 -5 -25 -16 -39 -12 -15 -21 -31 -21 -36 0 -9 -70 -104 -112 -153 -9 -11
-24 -29 -32 -40 -14 -19 -15 -18 -11 12 2 18 24 58 52 95 47 62 143 219 143
235 0 18 90 146 137 196 54 57 104 100 64 54 -36 -40 -20 -42 19 -2 18 19 36
33 38 30 2 -2 -8 -16 -23 -31z m525 24 c0 -7 -27 -41 -60 -76 -33 -34 -60 -67
-60 -72 0 -15 20 -12 20 3 1 16 98 122 105 115 3 -3 -15 -27 -40 -53 -25 -26
-45 -54 -45 -61 0 -8 -4 -14 -9 -14 -5 0 -14 -13 -21 -30 -7 -16 -21 -40 -31
-52 -31 -38 -33 -41 -57 -87 -33 -65 -56 -105 -63 -111 -3 -3 -13 -16 -23 -30
l-18 -25 7 25 6 25 -19 -24 c-30 -37 -54 -81 -45 -81 5 0 13 10 18 22 6 12 16
24 24 26 22 7 -23 -53 -98 -131 -54 -56 -66 -65 -74 -51 -7 12 1 26 35 58 70
66 138 170 235 359 8 15 19 25 24 21 6 -3 5 -12 -3 -21 -7 -8 -17 -24 -23 -34
-55 -101 -75 -142 -71 -146 2 -3 12 10 22 29 9 18 20 35 23 38 3 3 22 35 41
73 19 37 37 67 40 67 9 0 42 71 36 77 -2 2 -7 -5 -11 -16 -3 -12 -10 -21 -15
-21 -5 0 -12 -9 -15 -20 -3 -11 -11 -20 -16 -20 -13 0 -11 16 4 32 7 7 16 21
20 31 3 9 11 17 17 17 5 0 10 7 10 15 0 9 28 47 63 84 70 78 67 75 67 59z
m210 6 c0 -3 -29 -33 -64 -67 -35 -34 -66 -71 -70 -83 -3 -11 -14 -29 -24 -40
-9 -11 -24 -33 -33 -50 -25 -47 -44 -79 -49 -84 -3 -3 -14 -24 -25 -47 -11
-24 -23 -43 -27 -43 -5 0 -8 -4 -8 -10 0 -5 -18 -35 -40 -66 -22 -32 -40 -52
-40 -45 0 6 10 25 22 41 12 16 19 32 17 35 -9 8 -103 -129 -101 -147 0 -10 -3
-18 -9 -18 -20 0 -6 32 51 116 32 49 63 94 68 100 5 6 13 21 17 35 4 13 16 36
26 51 11 14 19 31 19 37 0 6 4 11 9 11 5 0 11 8 14 18 7 22 49 93 65 110 6 7
12 18 12 23 0 5 5 9 10 9 15 0 12 -14 -7 -36 -10 -11 -29 -40 -42 -65 -13 -24
-37 -63 -52 -87 -16 -24 -29 -50 -29 -58 0 -7 -4 -14 -10 -14 -5 0 -10 -7 -10
-16 0 -13 2 -13 13 -2 14 15 33 48 56 93 8 17 17 32 20 35 4 3 15 22 26 43 11
21 28 47 38 58 12 13 17 28 13 43 -4 15 0 29 11 37 14 12 15 11 8 -11 -5 -18
8 -8 51 38 53 56 74 72 74 56z m1230 -4 c0 -5 -4 -10 -9 -10 -5 0 -13 -9 -16
-20 -4 -11 -11 -18 -16 -15 -5 4 -9 0 -9 -7 0 -7 -17 -31 -37 -53 -20 -22 -51
-63 -69 -91 -18 -29 -39 -58 -46 -66 -7 -7 -24 -35 -38 -62 -14 -26 -32 -53
-41 -59 -8 -7 -24 -27 -34 -44 -11 -18 -23 -33 -27 -33 -4 0 -8 -8 -9 -17 0
-13 -3 -11 -10 6 -7 18 -5 30 8 49 10 14 23 32 28 41 6 9 12 18 15 21 9 9 29
44 44 75 7 17 23 40 35 52 11 12 21 27 21 32 0 5 6 16 13 23 7 7 28 33 47 58
19 25 38 47 42 48 5 2 6 8 2 13 -3 5 0 9 5 9 18 0 13 -15 -14 -46 -32 -36
-155 -217 -155 -227 0 -4 -9 -17 -20 -29 -11 -12 -20 -27 -20 -32 0 -16 47 37
54 62 4 12 12 22 17 22 5 0 9 6 9 13 0 12 9 26 50 74 5 7 10 15 10 19 0 5 33
50 75 101 5 7 26 33 45 57 35 44 50 55 50 36z m-1810 -15 c0 -3 -10 -16 -22
-29 -54 -54 -85 -94 -113 -141 -16 -27 -35 -56 -42 -63 -7 -7 -13 -20 -13 -28
0 -8 -4 -14 -8 -14 -5 0 -17 -19 -28 -42 -10 -24 -21 -45 -24 -48 -6 -6 -20
-29 -60 -96 -34 -57 -80 -106 -80 -84 0 11 -3 11 -12 2 -10 -10 -10 -14 0 -21
9 -5 -4 -25 -44 -70 -39 -43 -59 -58 -65 -50 -4 7 -4 19 -1 28 4 10 7 11 10 3
2 -7 8 -12 14 -12 5 0 7 8 4 18 -4 12 4 28 25 48 18 16 29 23 25 17 -4 -7 -3
-13 2 -13 14 0 23 28 11 32 -6 2 -1 14 10 27 12 13 21 28 21 33 0 4 4 8 10 8
5 0 7 -7 4 -15 -4 -8 -1 -15 5 -15 6 0 11 7 11 15 0 7 6 18 13 22 7 4 21 25
31 46 9 20 20 37 24 37 4 0 15 17 25 38 23 51 56 108 95 165 17 26 32 51 32
54 0 7 63 87 99 125 24 26 41 35 41 23z m1170 -2 c0 -5 -15 -24 -33 -43 -39
-41 -52 -71 -37 -80 11 -7 -18 -70 -32 -70 -11 0 -10 18 1 22 13 5 24 48 12
48 -6 0 -11 -5 -11 -12 0 -6 -12 -26 -26 -45 -14 -19 -23 -37 -19 -41 3 -3 10
0 15 8 5 8 11 12 14 9 3 -3 -3 -15 -14 -27 -11 -12 -20 -23 -20 -26 0 -2 -20
-37 -45 -77 -24 -39 -42 -77 -38 -82 3 -6 1 -7 -5 -3 -7 4 -12 4 -12 -1 0 -4
-14 -24 -30 -43 -16 -19 -30 -39 -30 -43 0 -5 -9 -5 -20 -2 -12 4 -20 2 -20
-5 0 -6 5 -8 10 -5 14 9 12 -7 -5 -29 -7 -10 -18 -15 -24 -12 -5 4 -13 1 -17
-5 -5 -8 -3 -9 6 -4 8 5 4 -6 -8 -23 -27 -37 -45 -50 -35 -26 4 12 3 15 -5 10
-7 -4 -12 -2 -12 3 0 6 3 11 8 11 4 0 27 25 50 55 24 30 47 53 52 50 9 -5 55
49 86 103 10 17 22 32 26 32 4 0 8 7 8 16 0 8 14 36 31 60 17 25 29 47 27 50
-4 4 -68 -82 -68 -92 0 -11 -103 -165 -107 -160 -3 3 4 18 16 34 12 17 21 32
21 35 0 17 136 218 153 225 4 2 7 10 7 18 0 8 5 14 10 14 6 0 10 6 10 13 0 15
76 128 94 139 14 10 16 10 16 1z m-1482 -60 c-50 -51 -107 -138 -184 -282 -27
-50 -27 -51 -15 -51 5 0 12 11 15 25 4 14 11 25 16 25 16 0 13 -7 -46 -91 -36
-51 -59 -76 -64 -69 -6 9 -9 9 -16 -1 -4 -7 -3 -14 4 -17 6 -2 -8 -29 -33 -63
-24 -33 -47 -69 -50 -80 -4 -13 -12 -18 -22 -15 -10 4 -13 1 -8 -13 5 -18 -53
-157 -62 -147 -3 2 6 26 18 53 40 84 39 82 23 76 -10 -3 -4 13 16 48 50 86
134 208 144 209 5 0 3 -7 -4 -15 -7 -9 -10 -18 -8 -21 6 -5 48 49 48 61 0 4
-7 2 -15 -5 -22 -19 -18 -6 14 42 16 24 43 70 60 103 74 139 95 172 149 227
30 32 60 58 66 58 6 0 -15 -26 -46 -57z m965 24 c-11 -12 -25 -29 -31 -37 -7
-8 -23 -29 -37 -46 -14 -18 -25 -37 -25 -43 0 -6 -4 -11 -8 -11 -5 0 -17 -18
-28 -40 -10 -22 -22 -40 -26 -40 -5 0 -8 -9 -8 -20 0 -11 -3 -20 -8 -20 -4 0
-13 -14 -20 -30 -8 -17 -20 -36 -27 -43 -17 -17 -29 -57 -17 -57 5 0 12 8 15
18 6 17 48 93 57 102 3 3 11 18 18 34 7 16 16 26 19 22 8 -8 -47 -116 -59
-116 -4 0 -8 -5 -8 -12 0 -6 -11 -26 -25 -44 -14 -18 -25 -36 -25 -40 0 -29
-156 -185 -177 -177 -9 4 -11 -1 -7 -13 5 -15 4 -16 -4 -5 -7 10 -7 21 0 35
10 19 12 19 17 3 6 -16 10 -14 36 13 31 32 25 41 -9 13 -20 -18 15 29 74 97
16 19 30 41 30 48 0 6 5 12 10 12 6 0 10 5 10 11 0 6 8 23 19 37 15 23 39 64
95 167 6 11 13 22 16 25 3 3 18 25 34 49 33 51 34 52 77 104 17 21 34 35 37
32 3 -3 -4 -15 -15 -28z m1777 -85 c19 -23 42 -44 50 -47 8 -3 30 -19 48 -35
17 -17 32 -27 32 -23 0 4 4 3 8 -3 8 -12 93 -71 105 -73 8 -1 124 -60 148 -76
9 -5 32 -18 50 -29 96 -53 129 -79 117 -93 -9 -11 -2 -22 33 -54 53 -48 79
-64 79 -49 0 5 -3 10 -7 10 -5 0 -25 16 -47 35 -21 19 -42 35 -47 35 -5 0 -9
5 -9 10 0 6 7 10 15 10 18 0 165 -138 165 -154 0 -6 9 -17 21 -24 12 -7 19
-16 16 -19 -3 -2 8 -17 24 -31 32 -30 43 -61 27 -83 -8 -11 -9 -11 -4 3 3 10
-2 24 -10 33 -10 10 -11 15 -3 15 9 0 8 4 -1 15 -7 8 -17 12 -23 8 -6 -3 -7
-1 -3 5 4 7 2 12 -3 12 -6 0 -11 -5 -11 -12 0 -6 -11 -1 -25 12 -14 13 -25 19
-25 14 0 -5 -4 -4 -8 2 -12 18 -82 67 -88 62 -3 -3 19 -23 48 -44 29 -21 55
-39 57 -41 2 -2 1 -6 -2 -9 -7 -8 -65 34 -117 85 -24 23 -28 30 -12 22 12 -7
22 -9 22 -5 0 9 -102 104 -112 104 -16 0 -7 -13 27 -43 19 -16 35 -34 35 -39
0 -5 -6 -3 -13 4 -8 7 -37 34 -65 60 -51 48 -85 90 -41 52 31 -27 49 -37 49
-27 0 4 -16 21 -36 37 -25 20 -38 25 -43 17 -5 -8 -13 -5 -26 9 -12 13 -14 20
-5 20 10 0 10 3 0 15 -7 8 -17 15 -22 15 -6 0 -4 -7 3 -17 12 -14 12 -16 -1
-11 -8 2 -15 16 -15 31 -1 14 -3 28 -5 29 -62 39 -90 43 -90 12 0 -8 -4 -14
-10 -14 -5 0 -10 -8 -10 -17 0 -14 -3 -14 -12 -5 -10 10 -10 15 2 22 13 9 13
11 0 21 -13 9 -13 10 2 6 9 -3 22 1 28 8 10 12 8 16 -6 22 -11 3 -21 9 -24 12
-3 3 -19 14 -35 23 -34 18 -50 14 -58 -17 -4 -17 -5 -16 -6 4 -1 24 -1 24 -16
5 -8 -10 -15 -14 -15 -7 0 6 5 15 10 18 6 3 10 15 10 26 0 24 -30 26 -31 2 0
-12 -2 -13 -6 -5 -3 7 1 19 7 28 11 12 10 13 -2 9 -8 -3 -22 -19 -32 -36 -10
-17 -20 -28 -23 -25 -3 3 4 18 16 34 27 39 28 56 1 42 -12 -6 -20 -7 -20 -1 0
5 6 12 13 14 8 4 7 6 -4 6 -9 1 -22 -10 -29 -24 -7 -14 -17 -25 -22 -25 -10 0
-11 20 0 20 4 0 15 11 24 25 18 23 17 24 -23 62 -22 21 -45 37 -51 35 -5 -1
-7 2 -4 6 3 5 -3 17 -14 27 -19 18 -20 17 -20 -3 0 -12 -4 -22 -10 -22 -13 0
-13 6 0 30 7 13 7 21 0 25 -6 4 -8 11 -4 16 7 12 67 -40 114 -99z m-2903 46
c-59 -75 -147 -214 -147 -235 0 -3 7 2 15 11 8 8 15 19 15 24 0 5 13 27 29 49
16 22 32 49 35 61 4 12 12 22 17 22 14 0 11 -8 -24 -63 -19 -29 -44 -69 -57
-90 -15 -26 -25 -35 -30 -27 -6 9 -11 7 -19 -8 -16 -29 -14 -37 6 -21 14 12
14 9 -3 -19 -10 -19 -26 -39 -34 -45 -10 -8 -9 -3 3 16 10 16 17 30 15 32 -2
2 -32 -39 -67 -91 -35 -52 -60 -98 -57 -101 3 -4 6 -1 6 5 0 6 6 17 13 24 6 7
25 33 40 56 16 24 31 42 33 39 3 -2 -23 -45 -56 -94 -33 -50 -60 -95 -60 -100
0 -6 -7 -16 -15 -23 -13 -11 -14 -10 -9 5 5 13 4 16 -5 11 -7 -5 -10 -18 -7
-30 3 -11 0 -28 -5 -36 -8 -12 -10 -9 -5 10 5 24 4 24 -9 6 -17 -22 -20 -50
-5 -41 6 3 10 4 10 2 0 -10 -53 -133 -61 -142 -14 -15 -11 1 16 67 28 70 29
72 15 63 -5 -3 -10 -4 -10 -2 0 9 61 132 81 162 10 17 22 37 26 45 9 20 106
164 114 170 3 3 9 15 13 28 4 12 12 22 17 22 5 0 9 5 9 11 0 11 66 122 119
201 27 40 54 66 69 68 2 0 -12 -19 -31 -42z m1524 -22 c-4 -6 -11 -18 -15 -26
-3 -8 -4 0 -1 18 2 17 0 32 -5 32 -10 0 -11 -6 -14 -58 0 -17 -19 -53 -44 -85
-24 -32 -40 -61 -37 -67 3 -5 0 -12 -6 -16 -8 -4 -9 -3 -5 4 4 7 3 12 -2 12
-4 0 -14 -16 -22 -35 -7 -19 -17 -32 -22 -29 -4 3 -8 -2 -8 -10 0 -18 -58
-116 -68 -116 -4 0 -18 -17 -32 -38 -30 -46 -62 -82 -73 -82 -5 0 -6 4 -3 9 4
5 2 11 -3 13 -5 1 -3 12 5 22 7 11 17 16 21 12 4 -4 1 -11 -7 -16 -8 -5 -12
-12 -8 -15 3 -3 16 9 29 27 15 21 17 28 6 19 -21 -16 -22 -3 -2 23 14 19 15
19 15 2 0 -15 3 -16 15 -6 17 14 21 35 5 25 -12 -7 -12 -3 -4 19 8 22 25 20
17 -1 -13 -39 39 29 74 95 19 37 49 84 65 105 17 21 28 40 25 43 -3 3 -18 -12
-33 -33 -16 -21 -31 -40 -34 -43 -3 -3 -21 -35 -40 -72 -19 -38 -38 -68 -42
-68 -10 0 -10 17 0 24 4 2 22 33 40 68 18 35 51 83 72 107 22 24 46 58 54 75
9 17 16 24 16 16 0 -9 -7 -26 -16 -38 -9 -13 -14 -26 -11 -28 7 -8 57 60 57
77 0 11 -2 11 -11 -1 -8 -11 -9 -7 -5 18 3 18 11 39 18 46 11 12 16 12 30 -1
11 -10 15 -20 9 -27z m876 -10 c-3 -8 -1 -17 6 -20 8 -3 7 -9 -5 -19 -10 -8
-18 -18 -18 -23 0 -5 -16 -27 -36 -49 -19 -22 -44 -56 -54 -75 -11 -19 -35
-57 -55 -85 -20 -27 -43 -61 -53 -75 -9 -14 -38 -51 -63 -82 -35 -42 -49 -53
-53 -42 -9 23 -7 34 4 34 5 0 7 -8 3 -17 -3 -10 12 5 33 33 22 28 47 59 57 69
25 24 51 65 45 70 -2 3 -31 -31 -63 -75 -32 -44 -61 -78 -63 -75 -5 4 24 47
73 110 18 22 53 76 79 120 27 44 56 88 65 97 21 22 30 35 61 80 25 37 47 52
37 24z m-2692 -106 c-3 -5 -1 -10 4 -10 6 0 11 5 11 10 0 6 5 10 10 10 6 0 -4
-18 -22 -41 -18 -22 -34 -35 -36 -29 -3 8 -8 8 -18 -1 -19 -16 -18 -30 3 -22
11 5 8 -6 -14 -38 -90 -133 -224 -404 -273 -554 -13 -38 -25 -64 -28 -57 -2 8
0 24 6 35 5 12 16 38 22 57 33 93 152 346 201 429 11 18 18 35 16 38 -3 2 -22
-25 -43 -61 -21 -36 -40 -64 -42 -61 -2 2 10 27 27 55 22 35 30 58 25 72 -6
21 -7 21 -25 -3 -25 -32 -24 -47 2 -23 12 11 5 -7 -20 -48 -22 -36 -47 -82
-55 -102 -13 -31 -18 -35 -30 -24 -12 11 -9 23 20 80 18 36 38 69 44 73 5 3 7
17 4 30 -3 13 0 26 7 30 9 6 10 2 6 -16 l-6 -24 19 25 c10 14 24 25 31 25 7 0
14 6 17 14 3 8 0 11 -7 7 -7 -5 -8 -1 -4 10 5 13 8 14 11 5 3 -10 10 -7 24 10
14 17 18 19 14 6 -4 -12 -2 -16 5 -11 8 4 9 -1 5 -17 -7 -23 -7 -23 8 -5 18
22 21 40 6 31 -28 -17 6 36 56 88 19 19 29 23 19 7z m3476 -308 c11 -12 17
-22 14 -22 -4 0 14 -17 39 -37 45 -38 59 -60 31 -49 -11 4 -8 -4 7 -24 12 -17
26 -30 30 -30 5 0 7 -4 4 -9 -7 -11 61 -101 76 -101 5 0 8 -6 5 -14 -5 -13 56
-106 69 -106 3 0 2 5 -2 12 -4 7 -3 8 4 4 6 -4 9 -13 6 -20 -3 -7 3 -22 13
-31 21 -22 23 -34 9 -55 -9 -13 -8 -13 5 -3 9 7 20 9 25 5 4 -4 2 2 -6 13 -14
19 -14 20 6 2 20 -17 24 -16 100 20 43 20 85 35 92 34 10 -2 10 2 0 19 -12 19
-14 19 -27 3 -11 -14 -13 -15 -8 -2 3 9 -4 23 -19 34 -27 20 -32 38 -9 29 8
-4 15 -1 15 5 0 6 -4 11 -8 11 -10 0 -147 105 -192 147 -19 18 -38 33 -41 33
-4 0 -10 7 -13 16 -5 14 -4 15 9 4 29 -24 25 -3 -6 28 -33 33 -64 46 -36 14
30 -33 18 -33 -18 0 -21 19 -31 34 -25 38 7 4 6 11 -5 20 -13 11 -14 10 -9 -4
5 -12 2 -15 -10 -10 -12 4 -15 13 -10 28 6 17 4 19 -7 9 -11 -8 -17 -8 -26 2
-9 10 -6 12 17 11 20 -1 51 -22 107 -73 43 -40 89 -81 103 -93 14 -12 35 -30
47 -40 12 -10 34 -27 50 -37 42 -27 63 -46 63 -58 0 -7 -3 -7 -8 0 -12 17
-103 77 -108 72 -3 -2 31 -31 76 -63 74 -54 100 -81 65 -68 -29 12 -15 -14 15
-26 17 -7 30 -19 30 -27 0 -8 4 -12 8 -9 4 2 14 0 22 -6 12 -8 12 -9 -2 -4
-10 3 -18 1 -18 -4 0 -8 -24 -19 -54 -24 -6 -1 -49 -22 -96 -46 -47 -25 -92
-48 -101 -52 -9 -3 -57 -36 -107 -73 -54 -39 -96 -64 -103 -59 -7 4 -9 3 -6
-3 4 -6 -9 -24 -28 -42 -34 -31 -52 -40 -40 -21 3 6 1 10 -5 10 -7 0 -10 -6
-7 -14 3 -8 -3 -22 -14 -32 -11 -10 -19 -12 -19 -6 0 7 5 12 10 12 6 0 10 6
10 12 0 32 -174 -181 -216 -264 -27 -54 -38 -61 -30 -20 3 15 1 34 -4 42 -8
11 -9 7 -5 -15 l6 -30 -15 25 c-9 14 -15 19 -16 10 0 -11 -3 -11 -12 -2 -10
10 -10 15 2 22 13 8 13 10 -2 10 -9 0 -19 6 -22 13 -3 6 -4 1 -1 -13 5 -31 -9
-60 -18 -36 -4 9 -3 16 1 16 4 0 7 13 7 29 0 16 -3 27 -7 25 -3 -2 -9 2 -12 8
-4 7 -4 3 -2 -9 2 -12 0 -23 -6 -25 -11 -4 38 -118 52 -118 5 0 11 -8 11 -17
1 -17 2 -17 6 0 2 9 9 17 13 17 6 0 5 11 0 26 -15 38 -11 43 6 10 15 -26 14
-32 -2 -68 -13 -29 -22 -38 -36 -35 -10 3 -19 0 -19 -6 -3 -28 -5 -32 -14 -34
-5 0 -9 3 -7 9 1 5 -1 7 -6 5 -4 -3 -7 -27 -7 -54 1 -26 -2 -51 -7 -54 -5 -3
-2 -12 7 -19 14 -12 15 -10 11 12 -2 14 2 35 10 47 9 12 12 26 9 31 -3 6 -1
10 4 10 6 0 11 9 11 20 0 11 5 20 11 20 7 0 8 -7 4 -17 -4 -10 -8 -22 -9 -28
-15 -73 -32 -115 -43 -111 -14 6 -18 -9 -5 -17 4 -2 1 -2 -7 0 -8 2 -18 -2
-22 -9 -5 -8 -8 -5 -6 10 0 12 8 22 15 22 12 0 12 3 2 15 -7 8 -10 24 -7 35 3
11 2 20 -3 20 -4 0 -11 -20 -14 -44 -5 -34 -11 -44 -22 -39 -10 4 -14 -3 -15
-23 l-1 -29 -7 30 c-4 17 -3 36 3 44 8 11 7 15 -3 19 -11 4 -11 6 0 13 11 7
11 9 -3 9 -9 0 -19 -8 -21 -17 -3 -10 -5 7 -6 37 -1 30 -4 66 -8 79 -4 17 -3
22 5 17 7 -4 12 -29 12 -57 0 -27 4 -49 8 -49 13 0 -3 123 -16 128 -7 2 -12 8
-12 13 0 6 5 7 10 4 15 -9 13 2 -21 100 -39 115 -78 184 -91 161 -12 -21 -28
-20 -29 2 0 14 -2 14 -9 -3 -7 -19 -8 -19 -15 -2 -4 10 -3 23 4 30 6 6 11 7
11 2 0 -6 4 -4 9 4 11 17 -16 64 -32 54 -5 -3 -7 -1 -4 4 8 13 -80 96 -93 88
-6 -4 -9 -1 -8 6 4 17 -88 79 -180 124 -84 40 -79 39 -79 21 0 -8 8 -11 19 -8
25 6 23 -5 -8 -33 -15 -14 -23 -25 -18 -25 5 0 18 9 27 21 10 11 23 19 28 17
14 -5 7 -23 -8 -22 -7 1 -10 -2 -7 -7 3 -5 -7 -20 -21 -33 -24 -22 -25 -25 -7
-23 12 0 18 6 15 14 -5 12 8 18 29 14 5 0 7 4 5 10 -1 6 4 14 11 16 24 9 11
-20 -24 -53 -19 -19 -32 -34 -27 -34 5 0 24 16 43 35 19 19 38 35 43 35 13 0
7 -31 -7 -36 -8 -3 -17 -12 -20 -19 -3 -9 0 -12 10 -8 7 3 14 9 14 14 0 4 7 6
15 3 11 -4 13 -2 9 9 -3 10 2 20 15 27 12 6 21 9 22 8 0 -2 2 -17 4 -35 3 -26
-2 -36 -31 -58 -19 -15 -32 -31 -29 -36 10 -15 23 -10 21 7 -2 26 22 28 27 2
5 -21 5 -21 4 2 -2 30 37 78 48 60 4 -6 -3 -21 -15 -32 -15 -14 -19 -23 -11
-31 7 -7 7 -14 0 -24 -8 -9 -8 -13 -1 -13 6 0 12 5 14 11 2 5 12 12 23 14 11
2 22 4 24 4 2 1 -2 8 -9 16 -11 13 -10 14 4 9 11 -4 16 -14 13 -25 -3 -11 -1
-19 4 -19 5 0 9 4 9 10 0 5 7 7 15 4 12 -5 13 -10 4 -20 -6 -8 -15 -11 -20 -8
-5 3 -9 1 -9 -5 0 -5 -3 -18 -6 -28 -4 -13 0 -11 15 7 23 28 23 29 26 -28 1
-23 6 -41 11 -40 5 2 8 5 7 8 -8 28 -6 54 6 58 10 3 12 -1 8 -17 -3 -11 -1
-24 4 -27 5 -3 9 2 9 10 0 25 20 19 21 -6 1 -13 2 -30 3 -40 1 -21 16 -36 16
-16 0 8 7 15 15 15 20 0 19 -10 -4 -31 -11 -10 -25 -15 -32 -10 -7 4 -10 3 -5
-4 3 -6 15 -10 26 -9 10 1 16 5 14 9 -3 4 2 8 10 8 9 0 16 7 16 16 0 8 5 12
10 9 6 -3 10 -1 10 5 0 6 5 8 10 5 6 -4 8 -11 5 -16 -4 -5 2 -9 12 -9 15 0 15
-2 4 -9 -16 -10 -24 -41 -11 -41 5 0 10 6 13 13 2 6 8 8 13 4 5 -5 1 -13 -9
-18 -9 -6 -14 -15 -11 -21 4 -6 1 -9 -7 -6 -9 3 -14 19 -14 41 0 43 -4 45 -28
12 -12 -17 -14 -26 -5 -31 6 -4 8 -3 4 4 -3 6 -2 13 4 17 10 6 14 -7 11 -32
-1 -7 3 -13 9 -13 6 0 8 -5 3 -12 -10 -18 -10 -119 1 -108 4 4 9 30 10 56 1
38 5 49 19 52 9 2 17 -2 17 -8 0 -6 -4 -8 -10 -5 -12 7 -12 5 -14 -57 -1 -25
2 -44 6 -42 5 3 8 12 8 20 0 8 4 12 10 9 6 -4 4 -15 -6 -30 -9 -13 -13 -29 -9
-35 4 -6 -4 -24 -16 -38 l-24 -27 26 23 c16 14 29 19 33 14 3 -6 1 -12 -4 -14
-11 -3 -20 -128 -9 -128 16 0 20 64 6 87 -4 6 -1 15 6 21 9 8 13 -2 14 -46 1
-45 -3 -62 -18 -78 -12 -12 -16 -25 -11 -28 5 -3 13 4 17 17 6 20 8 20 12 4 3
-11 -5 -30 -19 -45 l-23 -25 27 19 c27 19 32 30 28 72 -1 12 4 22 10 22 7 0
10 -8 7 -20 -3 -11 -1 -20 4 -20 5 0 10 6 10 13 1 6 4 -1 8 -18 7 -33 3 -75
-8 -75 -4 0 -5 17 -3 38 2 28 1 33 -7 22 -6 -8 -8 -22 -6 -30 2 -8 0 -22 -6
-30 -9 -12 -10 -11 -6 8 3 12 1 22 -4 22 -5 0 -9 -4 -9 -9 0 -5 -8 -18 -17
-27 -17 -17 -17 -17 -1 -11 10 4 24 -1 35 -11 16 -16 16 -16 10 1 -5 13 -3 17
5 14 7 -2 12 -15 10 -28 -3 -30 -47 -125 -61 -134 -6 -3 -11 -11 -11 -16 0 -6
4 -8 9 -4 5 3 12 2 14 -2 3 -5 -8 -9 -24 -9 -17 -1 -26 2 -22 9 3 6 1 7 -6 3
-6 -4 -9 -12 -6 -17 7 -10 -18 -39 -33 -39 -13 0 -26 -30 -23 -54 2 -11 -2
-16 -8 -12 -6 4 -11 -1 -12 -11 0 -11 -3 -13 -6 -5 -3 7 1 19 7 27 18 22 -4
18 -24 -4 -10 -11 -13 -22 -8 -25 5 -3 10 -17 10 -32 0 -16 -3 -21 -8 -14 -5
7 -13 9 -21 5 -8 -5 -6 1 4 12 12 13 14 23 8 27 -6 4 -16 -2 -22 -13 -7 -11
-19 -17 -28 -14 -11 4 -10 1 3 -9 10 -8 16 -20 12 -26 -3 -6 -1 -14 5 -18 8
-4 7 -9 -2 -15 -10 -6 -11 -9 -1 -9 6 0 12 -5 12 -11 0 -8 -4 -8 -14 1 -8 6
-12 18 -9 26 3 8 -1 14 -8 14 -12 0 -12 2 -1 9 11 7 10 9 -3 15 -25 9 -65 -25
-60 -51 3 -22 -20 -51 -32 -39 -3 3 -1 6 5 6 6 0 9 7 6 15 -4 8 -1 15 5 15 6
0 8 7 5 15 -4 8 -10 15 -16 15 -5 0 -7 -4 -4 -9 3 -4 -2 -17 -10 -27 -9 -10
-13 -13 -9 -7 4 8 1 11 -8 7 -18 -6 -30 -39 -29 -74 1 -19 -1 -21 -8 -10 -5 8
-7 17 -4 21 2 4 0 10 -5 14 -12 7 -33 -29 -23 -40 4 -5 2 -5 -5 -1 -6 3 -33
-5 -59 -19 -57 -30 -75 -45 -69 -55 3 -4 -2 -10 -10 -13 -8 -4 -12 -1 -9 6 2
7 -3 21 -11 32 -16 19 -16 19 -5 -2 9 -20 7 -24 -25 -38 -20 -8 -34 -19 -30
-25 3 -5 1 -10 -4 -10 -6 0 -11 4 -11 8 0 5 -20 4 -45 -2 -28 -7 -40 -13 -32
-18 7 -5 0 -6 -15 -2 -25 5 -27 4 -23 -19 4 -17 0 -27 -11 -31 -14 -5 -15 -4
-4 9 9 11 9 15 1 15 -7 0 -9 5 -5 11 4 7 0 9 -12 6 -20 -6 -79 -20 -126 -31
-19 -4 -26 -11 -22 -21 4 -10 0 -15 -11 -15 -9 0 -13 5 -10 10 3 6 2 10 -4 10
-18 0 -146 -51 -156 -62 -7 -7 -7 -9 0 -5 6 3 12 -3 12 -14 1 -12 -5 -19 -15
-19 -13 0 -14 2 -4 9 11 6 10 10 -4 15 -19 7 -39 -15 -23 -25 7 -4 5 -8 -4
-12 -11 -4 -14 0 -13 17 2 15 -3 22 -16 22 -10 0 -18 -4 -18 -8 0 -4 5 -8 12
-8 6 0 9 -3 6 -6 -4 -3 -22 -1 -42 4 -21 6 -36 7 -36 1 0 -5 8 -10 18 -10 16
-1 16 -2 0 -6 -25 -6 -22 -30 4 -44 15 -8 18 -14 10 -17 -10 -3 -10 -7 0 -20
12 -14 10 -14 -12 -2 -15 8 -20 15 -12 18 6 2 9 8 6 13 -4 6 -11 6 -19 -1 -20
-17 -35 -3 -35 31 0 28 -1 29 -52 31 -29 0 -66 2 -83 4 -74 7 -225 4 -270 -6
-98 -20 -105 -22 -99 -31 3 -5 0 -9 -5 -9 -6 0 -11 5 -11 11 0 5 -4 8 -9 4
-16 -9 -71 -13 -71 -4 0 4 -13 4 -30 -1 -16 -5 -30 -5 -30 0 0 4 -17 7 -37 6
-21 -1 -41 2 -45 8 -4 6 -12 5 -21 -3 -11 -9 -17 -9 -22 -1 -4 6 -14 9 -22 6
-9 -4 -22 -1 -31 6 -12 10 -16 10 -19 1 -3 -7 -9 -13 -14 -13 -6 0 -8 4 -5 9
3 5 -65 11 -152 13 -132 4 -167 9 -217 28 -75 28 -78 31 -80 74 0 20 -5 39 -9
43 -5 4 -6 -9 -2 -29 8 -43 0 -47 -38 -17 -26 21 -35 49 -15 49 5 0 7 -5 3
-12 -5 -7 -2 -8 7 -3 32 18 47 38 44 56 -2 11 0 17 6 14 5 -4 7 -10 5 -14 -3
-4 0 -13 5 -21 8 -11 9 -8 6 13 -2 15 -1 30 4 33 4 2 6 11 2 19 -3 8 -1 15 5
15 16 0 22 -26 9 -41 -7 -8 2 -1 19 14 17 15 33 24 37 20 4 -3 7 -1 7 5 0 17
-10 15 -33 -5 -19 -17 -20 -17 -14 0 4 11 3 16 -3 12 -14 -9 -12 8 3 25 6 8 0
4 -16 -9 -15 -14 -26 -32 -25 -40 2 -9 -4 -16 -12 -16 -9 0 -15 -9 -15 -24 0
-13 -5 -26 -12 -28 -8 -3 -11 3 -8 16 4 22 -9 29 -20 11 -3 -5 -1 -10 5 -10 6
0 9 -4 5 -9 -7 -13 -48 -10 -58 4 -5 6 -13 3 -22 -9 -8 -11 -15 -15 -15 -8 0
6 -7 9 -15 6 -22 -9 -18 -21 6 -19 11 1 25 8 30 16 6 10 9 10 9 2 0 -7 7 -13
15 -13 8 0 15 -4 15 -10 0 -5 -3 -9 -7 -9 -23 4 -53 -2 -53 -11 0 -5 6 -7 13
-4 26 10 35 -19 14 -40 -16 -15 -19 -16 -14 -3 3 8 -1 21 -9 27 -8 7 -14 20
-14 29 0 14 -2 14 -10 1 -5 -8 -10 -10 -10 -3 0 6 -9 9 -20 6 -11 -3 -20 -10
-20 -15 0 -5 -4 -6 -10 -3 -6 4 -5 11 3 19 6 8 15 12 19 10 4 -2 9 0 13 5 3 6
-5 8 -17 6 -34 -6 -53 8 -39 31 10 18 10 17 11 -4 0 -13 4 -20 10 -17 7 4 7
13 0 26 -8 14 -6 39 5 92 9 39 20 97 25 127 5 30 14 71 20 90 23 76 92 478 93
538 0 6 5 12 10 12 5 0 7 -10 3 -23 -3 -13 -8 -50 -10 -82 -4 -43 -1 -33 12
37 9 53 20 100 24 104 8 7 4 -32 -14 -134 -6 -35 -11 -74 -11 -88 1 -28 -13
-32 -20 -6 -3 10 -5 6 -6 -11 -1 -17 3 -26 9 -22 11 7 13 -6 4 -30 -5 -11 -9
-13 -14 -5 -4 6 -13 -24 -19 -67 -7 -43 -21 -114 -32 -158 -32 -128 -66 -317
-65 -354 1 -27 6 -35 24 -37 12 -2 22 1 22 7 0 6 6 9 14 6 8 -3 20 1 26 8 7 8
16 13 20 10 5 -3 20 9 34 27 16 20 26 27 26 18 1 -15 80 67 80 82 0 4 0 10 0
13 0 3 9 14 21 26 11 11 18 27 15 34 -2 7 1 19 9 25 8 6 11 18 8 26 -3 8 0 14
7 14 7 0 10 7 6 15 -3 8 1 20 8 27 7 7 16 27 20 43 5 22 4 26 -4 15 -11 -17
-13 -6 -3 28 3 14 9 19 13 13 7 -12 13 60 13 147 0 28 2 52 6 52 8 0 6 142 -5
300 -6 94 -10 115 -15 85 -5 -31 -6 -34 -8 -12 0 16 -5 25 -11 22 -6 -4 -10 6
-10 22 0 19 3 24 9 14 14 -23 22 4 14 51 l-7 43 -7 -35 c-5 -25 -7 -17 -5 28
3 65 -17 188 -26 162 -3 -8 -4 -3 -2 13 2 15 -1 27 -6 27 -6 0 -10 -8 -10 -17
-1 -14 -3 -13 -14 5 -8 16 -10 39 -5 70 4 31 2 57 -6 77 -16 35 -20 19 -5 -19
5 -14 6 -26 1 -26 -12 0 -21 26 -21 60 0 16 -5 32 -10 35 -6 4 -8 16 -4 27 4
15 3 18 -7 13 -8 -6 -11 -4 -7 7 8 21 -36 95 -47 78 -10 -16 -25 6 -24 35 l0
20 9 -20 c7 -16 9 -17 9 -3 1 9 -3 19 -8 22 -13 8 -42 -4 -35 -15 8 -13 -7
-99 -17 -99 -5 0 -7 12 -4 28 4 22 4 24 -4 7 -11 -22 -15 -6 -5 20 5 13 8 14
15 3 7 -10 9 -9 9 5 0 9 -5 17 -11 17 -7 0 -6 8 3 23 8 12 13 42 12 70 -1 33
2 47 11 47 8 0 20 6 27 13 37 35 44 37 45 14 0 -12 -1 -16 -4 -9 -4 10 -8 10
-19 1 -17 -14 -18 -35 -2 -45 6 -4 8 -3 5 3 -4 6 0 13 8 17 8 3 17 1 20 -4 4
-6 13 -7 23 -1 9 4 22 6 29 4 6 -2 14 0 17 6 4 6 14 7 23 4 12 -5 14 -3 8 8
-6 10 -3 10 9 -2 19 -18 80 -14 69 5 -4 6 1 5 10 -3 24 -19 186 -14 222 8 12
7 4 6 90 14 124 13 218 20 292 21 56 1 69 4 61 14 -8 9 5 12 58 13 38 1 71 1
74 1 100 -7 151 -14 176 -21 19 -5 36 -5 41 0 5 5 23 4 43 -2 19 -6 42 -12 50
-14 8 -1 29 -7 45 -14 47 -18 60 -22 64 -21 2 1 8 -4 12 -12 7 -10 9 -10 9 3
0 9 6 16 13 17 54 7 62 11 66 27 2 11 6 14 10 7 5 -8 17 -9 41 -2 21 6 47 6
67 1 18 -5 33 -7 33 -4 0 2 22 -12 49 -31 48 -36 75 -48 136 -61 23 -5 27 -4
18 6 -6 6 -26 13 -43 15 -17 2 -39 8 -48 14 -13 8 -14 10 -2 8 8 -1 30 6 49
16 46 24 148 23 230 -4 35 -12 70 -19 77 -16 8 3 14 1 14 -4 0 -6 7 -10 16
-10 8 0 12 5 9 10 -8 13 12 40 29 40 7 0 6 -3 -2 -9 -12 -7 80 -29 148 -34 14
-1 30 -5 36 -9 5 -4 32 -5 59 -4 46 4 52 1 98 -43 27 -25 57 -45 68 -45 10 1
16 -3 13 -7 -3 -5 -10 -7 -15 -4 -5 4 -9 2 -9 -2 0 -5 30 -38 66 -73 36 -36
79 -83 95 -104 16 -22 29 -32 29 -23 0 8 -5 17 -11 19 -9 3 -16 22 -18 53 -1
6 -5 5 -9 -1 -5 -8 -13 -3 -26 14 -11 14 -14 22 -8 18 6 -3 13 -3 16 2 2 4 -5
9 -16 9 -12 1 -26 7 -32 14 -7 7 -7 10 0 6 6 -3 10 4 10 18 0 13 -3 22 -7 19
-4 -2 -12 3 -19 11 -6 7 -18 11 -25 9 -10 -4 -12 0 -8 15 4 17 8 19 19 10 23
-19 16 -4 -8 17 -12 10 -18 13 -14 7 11 -19 -3 -16 -22 5 -10 9 -14 13 -9 8
15 -21 6 -24 -22 -8 -16 9 -28 19 -26 22 1 3 -3 11 -11 18 -8 7 -14 10 -14 7
0 -3 -5 -3 -11 1 -11 6 43 36 59 32 4 -1 35 2 69 6 52 7 69 4 109 -13 38 -17
49 -19 57 -9 6 10 8 9 4 -3 -3 -10 13 -33 44 -64 34 -33 49 -42 49 -31 0 10
-5 14 -10 11 -7 -4 -9 3 -6 19 3 16 -2 30 -12 38 -15 11 -16 11 -4 -4 8 -10 9
-18 3 -22 -13 -8 -34 30 -26 47 4 6 -1 3 -9 -7 -16 -19 -16 -19 -16 2 0 23
-42 48 -61 36 -5 -3 -9 -1 -9 4 0 6 7 12 15 16 9 3 12 12 9 23 -5 14 -4 15 4
4 8 -11 15 -11 43 3 18 9 35 13 38 9 3 -5 20 -9 38 -9 17 -1 46 -12 63 -24 17
-12 34 -20 37 -16 7 6 -15 36 -25 34 -20 -2 -31 3 -27 15 3 7 -9 18 -27 26
-31 14 -31 15 -10 24 12 6 22 13 22 16 0 4 12 8 28 9 15 1 28 7 30 12 2 6 10
6 23 0 13 -7 19 -7 19 0 0 5 -5 10 -12 10 -6 0 -8 3 -5 6 4 4 13 1 21 -5 10
-8 16 -9 21 -1 3 5 0 10 -7 11 -7 1 -2 5 12 9 18 6 20 8 7 9 -10 1 -15 6 -12
11 4 6 16 8 27 4 11 -3 18 -2 15 3 -3 5 6 10 19 11 18 1 23 -2 17 -11 -18 -29
0 -47 24 -23 4 4 4 7 -2 6 -22 -5 -27 1 -14 16 10 13 10 17 -2 25 -8 5 -20 7
-26 4 -14 -5 -18 7 -7 18 13 13 65 0 85 -21z m-3336 -359 c-4 -10 -8 -22 -9
-28 -1 -5 -10 -35 -21 -65 -11 -35 -14 -55 -7 -58 6 -2 3 -23 -9 -59 -17 -47
-89 -306 -89 -319 0 -2 -7 -4 -15 -4 -8 0 -15 -9 -15 -20 0 -11 5 -20 10 -20
6 0 10 -5 10 -11 0 -8 -5 -8 -15 1 -13 10 -15 9 -15 -9 0 -12 5 -19 10 -16 15
9 13 -9 -14 -126 -13 -58 -29 -147 -36 -198 -7 -50 -17 -91 -23 -91 -5 0 -6
12 -2 28 12 49 15 88 5 72 -17 -27 -18 -6 -4 50 10 39 13 44 10 17 -3 -22 -1
-35 5 -32 12 8 12 75 -1 75 -5 0 -7 6 -5 13 2 6 7 30 10 52 3 22 11 58 17 80
11 38 12 39 19 15 l7 -25 1 28 c1 15 -3 27 -8 27 -9 0 -2 38 20 123 6 22 12
37 15 34 2 -2 0 -16 -5 -31 -6 -14 -7 -26 -2 -26 13 0 23 63 11 70 -11 7 26
137 43 155 7 7 7 3 3 -10 -15 -42 -36 -129 -31 -133 2 -2 7 9 11 24 3 16 19
70 34 119 35 114 44 155 30 135 -14 -21 -12 -2 5 50 29 85 47 130 52 130 3 0
2 -8 -2 -17z m3233 -525 c-112 -143 -190 -307 -219 -458 -16 -85 -16 -276 0
-365 24 -133 84 -282 152 -381 17 -25 26 -49 23 -58 -9 -23 -27 -20 -21 4 3
11 0 23 -5 27 -7 4 -8 1 -3 -7 5 -9 4 -11 -4 -6 -6 4 -9 11 -6 16 3 5 -4 14
-15 20 -11 6 -20 15 -20 21 0 6 6 7 13 3 7 -4 9 -3 4 2 -5 5 -14 9 -20 9 -7 0
-12 10 -11 23 0 12 -2 20 -4 17 -10 -10 -32 34 -25 51 4 12 3 15 -6 10 -14 -9
-53 75 -72 156 -7 31 -16 55 -20 53 -3 -3 -4 7 -1 21 3 20 7 23 14 12 6 -8 7
10 3 52 -7 68 -8 248 -1 259 2 3 7 27 10 53 12 92 85 279 145 373 34 53 152
197 158 192 2 -3 -29 -47 -69 -99z m-3151 -185 c-2 -5 -12 -61 -22 -125 -10
-65 -22 -115 -27 -112 -10 6 -16 -9 -22 -51 -2 -16 -16 -97 -30 -179 -15 -82
-25 -151 -23 -152 5 -6 35 132 49 225 6 46 14 79 16 73 4 -13 -20 -171 -48
-312 -10 -52 -26 -144 -35 -205 -18 -112 -31 -162 -41 -152 -3 3 -1 21 5 39
13 42 54 308 48 315 -4 4 -18 -66 -32 -162 -3 -16 -7 -39 -9 -50 -2 -11 -8
-41 -12 -67 -3 -27 -11 -48 -16 -48 -5 0 -7 8 -4 18 5 16 8 35 22 117 16 98
27 160 44 240 24 113 26 126 47 257 9 59 21 106 26 105 11 -2 24 38 31 97 11
97 19 136 28 136 5 0 7 -3 5 -7z m140 -210 c-2 -43 -2 -63 0 -45 2 18 8 30 12
28 9 -6 -12 -200 -34 -311 -18 -93 -53 -206 -68 -220 -7 -7 -8 -4 -2 10 16 45
45 158 41 162 -2 2 -7 -10 -11 -27 -4 -17 -9 -29 -12 -26 -3 3 4 56 16 118 12
62 24 131 28 153 l6 40 7 -30 c7 -27 8 -25 9 15 0 33 -2 41 -9 30 -7 -10 -8 2
-4 40 8 78 12 113 13 128 0 6 4 12 7 12 3 0 4 -35 1 -77z m2710 -220 c5 3 9
-3 9 -14 0 -10 -5 -19 -10 -19 -6 0 -5 -5 2 -12 15 -15 16 -31 0 -22 -7 5 -8
3 -3 -6 5 -8 4 -11 -3 -6 -5 3 -13 0 -15 -6 -3 -7 -3 2 0 20 4 25 2 32 -8 30
-17 -4 -29 -18 -29 -37 0 -11 4 -9 16 5 15 19 15 19 6 -1 -7 -14 -6 -24 4 -33
8 -7 14 -8 14 -2 0 5 5 10 10 10 7 0 5 -11 -3 -27 -12 -23 -12 -28 2 -45 17
-20 37 -25 25 -6 -4 6 -3 8 4 4 6 -3 12 -1 15 6 2 7 2 2 0 -12 -6 -32 -6 -32
-34 -22 -13 5 -50 9 -81 8 -32 -2 -58 2 -58 7 0 5 -11 7 -25 5 -14 -3 -25 -1
-25 5 0 6 -7 2 -15 -9 -8 -10 -15 -14 -15 -8 0 7 17 24 38 40 22 17 31 20 22
9 -13 -17 -13 -18 1 -13 9 4 22 2 28 -3 7 -6 8 -5 2 2 -6 7 2 21 23 40 19 16
38 47 46 71 10 35 14 39 20 24 8 -25 22 -5 14 21 -4 14 -4 15 4 4 5 -7 14 -11
19 -8z"/>
<path d="M2220 7982 c0 -7 -4 -11 -9 -9 -10 2 -121 -101 -121 -113 0 -5 -7 -7
-15 -4 -20 8 -19 -6 3 -22 14 -12 14 -13 1 -8 -17 5 -19 1 -38 -106 -5 -25 -9
-37 -10 -28 0 9 -5 19 -9 22 -4 2 -6 -12 -4 -32 2 -28 1 -33 -7 -22 -8 11 -11
-2 -11 -49 0 -46 5 -70 17 -83 9 -10 13 -21 9 -25 -4 -4 -11 -1 -16 7 -9 14
-9 5 4 -97 1 -11 10 -33 19 -47 19 -28 22 -40 8 -32 -16 10 2 -49 27 -86 28
-43 37 -48 29 -17 -4 16 -3 19 5 11 14 -14 18 -53 5 -45 -6 4 -7 -4 -3 -20 5
-22 3 -25 -10 -20 -9 3 2 -12 24 -35 22 -22 38 -43 35 -45 -2 -3 0 -8 6 -12 7
-4 11 4 11 20 0 24 1 25 16 11 8 -9 20 -16 26 -16 5 0 8 -7 5 -15 -4 -8 -1
-17 5 -21 7 -5 8 -2 3 6 -5 8 -3 11 6 8 8 -3 13 -12 13 -21 -1 -9 2 -14 7 -11
17 10 9 32 -18 49 -45 29 -60 49 -65 88 -4 36 -4 36 14 17 25 -27 38 -25 38 5
0 14 5 25 11 25 5 0 9 -10 7 -22 -2 -11 3 -23 10 -25 7 -3 10 1 6 11 -5 12 -2
15 10 10 9 -3 16 -1 16 6 0 6 -4 9 -8 6 -5 -3 -16 4 -25 15 -17 19 -38 26 -36
12 1 -5 1 -19 0 -33 l-2 -25 -23 29 c-18 22 -25 25 -32 15 -5 -8 -9 -18 -9
-23 0 -5 -6 -11 -13 -14 -11 -3 -12 0 -2 18 6 12 9 32 6 45 -6 24 15 51 29 37
5 -4 5 -1 1 6 -6 9 -11 10 -21 2 -10 -8 -12 -5 -12 15 0 14 4 25 9 25 5 0 6 5
2 11 -4 8 -9 7 -15 -2 -5 -8 -9 -12 -10 -9 -7 46 -6 60 4 53 7 -4 5 1 -3 12
-8 10 -14 28 -13 39 3 20 2 20 -7 -1 -10 -24 -23 -33 -15 -10 3 6 -4 18 -16
26 -19 11 -21 11 -16 -3 4 -9 2 -16 -3 -16 -14 0 -19 15 -10 30 7 11 11 11 24
1 9 -8 16 -10 17 -5 0 5 2 19 3 32 2 12 -2 22 -7 22 -5 0 -7 11 -5 25 3 14 1
28 -3 31 -5 3 -9 13 -9 22 0 13 2 14 9 3 6 -9 9 1 9 28 0 23 -3 39 -8 36 -5
-3 -6 -13 -3 -23 4 -12 3 -14 -4 -7 -12 11 -5 75 8 75 5 0 6 6 3 14 -3 8 -1
17 5 21 6 3 11 17 11 30 0 13 5 27 11 31 6 3 9 17 6 30 -2 13 0 24 4 24 5 0 9
-6 9 -12 1 -7 7 2 15 21 8 18 12 37 9 42 -3 5 3 6 12 2 14 -5 16 -3 11 11 -4
9 -3 15 2 12 12 -8 33 19 23 30 -4 4 2 2 12 -6 18 -13 19 -13 14 1 -4 9 -1 22
5 28 6 6 8 14 4 18 -4 3 -7 1 -7 -5z"/>
<path d="M2386 7768 c-5 -21 -14 -38 -22 -38 -7 0 -16 -5 -20 -12 -5 -7 -3 -8
6 -3 8 5 11 3 8 -6 -3 -8 -11 -13 -18 -11 -8 2 -10 -3 -6 -13 3 -9 2 -13 -4
-10 -15 9 -46 -50 -60 -115 -8 -39 -10 -78 -4 -117 4 -32 8 -62 9 -68 0 -15
19 -34 28 -28 4 2 7 -3 7 -11 0 -20 -9 -20 -32 1 -18 16 -18 16 -12 0 4 -12 2
-16 -8 -12 -8 3 -15 11 -15 18 0 7 -3 23 -7 36 -5 14 -4 21 1 18 6 -4 8 4 5
20 l-5 26 -12 -29 c-13 -29 -13 -29 -9 11 2 22 5 65 8 96 3 38 16 78 41 127
20 40 34 78 32 85 -4 7 -6 6 -6 -4 -1 -9 -13 -34 -28 -55 -54 -77 -57 -86 -55
-163 1 -40 -2 -79 -8 -86 -13 -16 8 -68 23 -58 6 3 7 1 3 -5 -9 -15 34 -80 57
-88 10 -3 16 -11 14 -17 -2 -7 0 -21 4 -32 8 -18 8 -18 6 4 -1 16 4 25 15 27
22 3 31 -11 30 -47 0 -16 4 -31 9 -34 8 -6 7 32 -3 75 -2 9 3 14 13 12 9 -1
20 5 23 14 3 9 12 14 20 11 14 -5 42 40 31 51 -3 3 -5 0 -5 -7 0 -9 -8 -11
-26 -7 -17 5 -23 3 -19 -4 3 -5 1 -10 -4 -10 -16 0 -14 10 7 34 16 20 16 20
-1 7 -16 -13 -19 -12 -24 7 -3 12 -9 19 -14 16 -5 -3 -6 2 -3 10 3 9 1 16 -5
16 -22 0 -10 37 17 49 15 8 34 16 42 20 23 11 53 79 44 99 -4 9 -8 23 -10 31
-4 18 -45 61 -57 58 -5 -1 -11 3 -14 10 -6 17 35 27 52 13 11 -9 15 -9 15 -1
0 6 -5 11 -12 11 -6 0 -8 3 -5 7 4 3 1 13 -7 22 -8 9 -16 32 -18 51 l-4 35 -8
-37z"/>
<path d="M3359 7343 c-6 -16 -8 -52 -5 -84 5 -44 2 -69 -15 -115 -12 -33 -25
-63 -30 -68 -16 -18 -10 -39 9 -32 14 5 14 4 -2 -9 -13 -10 -15 -15 -6 -15 10
0 9 -4 -3 -18 -21 -23 -22 -39 -2 -22 9 7 18 10 22 6 3 -3 1 -6 -6 -6 -8 0
-10 -8 -6 -22 5 -19 4 -20 -5 -8 -10 13 -11 12 -6 -3 3 -10 6 -25 6 -32 0 -7
7 -15 15 -19 13 -4 14 -2 5 14 -9 16 -8 18 5 14 8 -4 15 -11 15 -18 0 -6 5 -4
10 4 8 12 10 10 10 -8 0 -13 -4 -20 -10 -17 -18 11 -11 -27 8 -42 9 -8 12 -12
6 -9 -7 3 -15 -1 -18 -10 -3 -8 -11 -12 -17 -8 -8 4 -7 9 2 15 8 5 9 9 3 9
-17 0 -50 -28 -41 -36 4 -4 7 -2 7 5 0 9 5 9 20 1 11 -6 20 -15 20 -21 0 -6
-4 -7 -10 -4 -5 3 -10 1 -10 -6 0 -8 -4 -8 -13 -1 -10 8 -13 6 -14 -9 -1 -10
2 -19 7 -19 13 0 22 -34 14 -54 -5 -14 -9 -14 -23 -4 -9 7 -4 -1 12 -18 27
-30 37 -62 15 -48 -6 4 -8 3 -4 -4 4 -7 17 -8 39 -1 17 5 33 9 35 9 2 0 0 5
-3 10 -4 6 -10 8 -14 6 -8 -6 -5 60 4 74 4 6 10 8 14 6 4 -3 8 5 8 17 2 17 0
19 -7 7 -8 -13 -10 -13 -10 2 0 9 5 18 12 20 8 3 8 9 1 22 -10 18 4 66 19 66
10 0 -3 33 -15 42 -6 3 -11 31 -12 62 0 30 -4 58 -7 62 -4 3 -3 16 2 29 5 13
6 25 3 29 -3 3 -2 13 2 23 9 21 8 160 -1 174 -3 6 -12 8 -20 5 -8 -3 -14 -1
-14 4 0 6 4 10 9 10 6 0 9 16 8 35 -1 19 -3 35 -5 35 -1 0 -7 -12 -13 -27z"/>
<path d="M2283 6810 c1 -11 9 -22 17 -25 9 -3 16 -14 15 -25 -2 -31 -15 -36
-15 -6 0 15 -4 25 -8 22 -5 -3 -7 -18 -4 -34 2 -16 -1 -33 -7 -36 -6 -4 -11
-1 -11 6 0 8 -5 6 -11 -5 -6 -9 -14 -15 -18 -13 -4 3 -8 -1 -8 -9 0 -11 4 -12
14 -4 17 15 16 9 -4 -32 -10 -19 -19 -45 -20 -59 -1 -14 6 -2 18 27 24 61 98
151 96 116 -1 -12 -6 -21 -11 -20 -6 1 -10 -13 -9 -33 1 -24 -1 -30 -7 -20 -8
13 -10 13 -10 1 0 -8 -3 -11 -6 -8 -4 4 -1 13 6 22 7 9 10 18 7 22 -11 10 -40
-69 -42 -112 -1 -22 -4 -42 -5 -45 -7 -11 -5 -108 2 -103 5 2 8 -1 8 -6 0 -6
-7 -11 -15 -11 -18 0 -18 -1 -6 -34 7 -18 6 -28 -5 -36 -11 -10 -14 -10 -14 0
0 8 -2 11 -4 9 -2 -2 0 -22 4 -44 6 -32 8 -34 9 -12 0 15 8 30 16 34 11 4 14
14 11 36 -3 19 1 35 12 46 15 15 15 15 10 0 -4 -9 -1 -22 5 -28 9 -9 9 -12 1
-9 -7 2 -12 -1 -12 -7 -1 -5 7 -9 16 -7 13 2 14 1 4 -6 -7 -5 -12 -24 -10 -45
2 -31 4 -34 20 -26 10 5 18 21 18 34 0 13 4 26 8 29 5 3 8 -10 7 -29 0 -18 3
-31 8 -28 5 3 7 13 4 23 -3 11 1 21 8 24 9 3 11 -2 8 -17 -4 -18 -3 -19 6 -7
12 18 15 50 3 50 -4 0 -9 10 -9 22 -2 17 0 19 7 8 5 -8 11 -12 15 -9 7 8 -35
55 -46 52 -13 -4 -11 24 1 30 6 3 5 4 -2 3 -11 -2 -38 16 -38 26 0 3 16 3 36
2 41 -4 69 9 96 40 20 25 23 40 6 30 -10 -6 -10 -4 -2 7 14 19 16 60 3 75 -5
7 -8 23 -6 36 2 12 2 17 0 11 -3 -7 -7 -13 -9 -13 -11 0 -49 23 -56 34 -13 19
-9 46 7 46 8 0 15 -4 15 -9 0 -5 7 -11 15 -15 13 -4 14 -2 5 14 -9 16 -8 18 5
14 8 -4 15 -1 15 5 0 11 -20 15 -50 11 -11 -1 -12 1 -4 9 12 13 77 3 69 -10
-3 -4 -1 -10 5 -14 5 -3 10 3 10 13 0 24 -59 39 -89 22 -14 -7 -22 -7 -27 2
-4 7 -3 8 4 4 7 -4 12 -2 12 3 0 6 -13 11 -30 11 -16 0 -30 -4 -30 -10 0 -5 8
-7 18 -3 9 3 13 2 9 -2 -4 -5 3 -15 15 -23 13 -7 15 -11 6 -8 -12 4 -18 0 -18
-12 0 -14 -2 -15 -9 -2 -6 8 -7 18 -4 24 4 5 -1 7 -10 3 -9 -3 -16 -3 -16 1 3
18 -2 32 -10 32 -6 0 -9 -9 -8 -20z"/>
<path d="M2126 6663 c-4 -5 -13 -8 -19 -8 -7 -1 -11 -7 -9 -15 2 -10 -3 -8
-19 5 -12 11 -19 14 -15 8 4 -8 1 -13 -8 -13 -9 0 -16 -6 -16 -14 0 -8 -7 -22
-16 -30 -15 -15 -8 -22 19 -17 5 1 6 -3 2 -9 -3 -6 -10 -8 -15 -5 -4 3 -8 -5
-8 -18 -2 -41 -9 -72 -19 -70 -5 1 -8 -11 -7 -25 3 -38 5 -40 13 -12 4 14 6
-19 5 -73 l-2 -97 27 -6 c14 -3 31 -7 38 -9 8 -3 11 9 10 36 -3 47 9 52 18 8
5 -23 10 -28 16 -18 4 8 4 16 -2 20 -5 3 -7 14 -3 24 5 12 4 16 -3 12 -6 -4
-19 0 -27 9 -14 13 -16 14 -16 0 0 -8 -4 -17 -9 -21 -6 -3 -6 8 -1 27 5 18 8
45 6 60 -2 15 1 25 6 22 5 -3 7 6 4 21 -3 17 0 28 10 32 8 3 14 12 14 20 0 8
-4 11 -10 8 -15 -9 -12 0 10 41 12 20 20 46 18 58 -2 13 2 20 10 19 6 -2 12 6
12 17 0 22 -3 24 -14 13z"/>
<path d="M4779 9171 c-19 -15 -26 -30 -28 -66 l-2 -46 156 2 c130 1 155 3 155
16 0 12 -13 14 -73 11 l-72 -3 3 30 c7 60 -86 98 -139 56z"/>
<path d="M5488 7349 c-1 -387 -2 -1104 -3 -1594 0 -489 -3 -895 -7 -901 -4 -6
-4 -14 0 -18 8 -9 9 -55 11 -585 0 -222 3 -402 5 -400 6 6 11 634 9 1139 0 63
0 453 -1 865 -1 1575 -4 2190 -8 2194 -2 2 -5 -313 -6 -700z"/>
<path d="M5073 7964 c6 -11 -181 -119 -191 -110 -5 6 24 37 33 35 10 -2 66 23
61 28 -2 2 -17 -2 -33 -10 -23 -12 -30 -12 -40 -2 -6 7 -9 16 -5 21 4 4 2 4
-5 1 -6 -4 -9 -15 -6 -25 6 -23 -21 -46 -43 -38 -14 5 -15 4 -5 -8 7 -8 20
-12 29 -9 9 3 0 -6 -20 -21 -27 -19 -36 -31 -31 -44 4 -10 3 -13 -3 -7 -5 5
-13 13 -18 17 -5 3 6 16 25 27 19 12 30 21 26 21 -13 0 -49 -21 -71 -41 -11
-11 -23 -19 -28 -19 -4 0 -8 -5 -8 -12 0 -6 7 -4 18 5 26 24 39 21 17 -3 -20
-22 -8 -28 15 -7 8 6 6 2 -5 -11 -14 -16 -21 -19 -26 -10 -9 15 -36 -7 -121
-96 -32 -34 -58 -56 -58 -50 0 11 105 119 145 148 17 13 17 15 3 16 -9 0 -19
-6 -21 -12 -4 -10 -8 -9 -17 2 -9 12 -10 11 -5 -6 6 -22 -17 -40 -35 -29 -5 3
-12 0 -16 -6 -5 -8 -3 -9 6 -4 23 14 6 -11 -49 -74 -40 -44 -57 -58 -63 -49
-6 8 -7 5 -3 -9 4 -14 2 -23 -4 -23 -6 0 -11 6 -11 13 0 6 -5 4 -11 -6 -6 -10
-8 -25 -5 -32 3 -8 1 -17 -4 -20 -4 -3 -10 1 -13 7 -2 7 -4 2 -4 -13 -1 -25
-62 -135 -63 -111 0 7 5 23 11 34 6 12 7 18 1 14 -6 -3 -15 -20 -21 -36 -6
-18 -6 -28 -1 -25 6 4 10 -3 10 -14 0 -11 -4 -22 -9 -25 -10 -6 -64 -170 -64
-193 0 -8 -5 -12 -12 -10 -6 3 -11 -5 -12 -17 0 -11 1 -15 4 -8 3 6 9 12 15
12 6 0 7 -8 3 -17 -4 -10 -8 -67 -9 -128 -2 -101 -4 -110 -22 -110 -17 0 -19
8 -19 100 0 55 3 125 7 155 10 78 60 229 98 295 18 31 30 59 27 61 -9 10 -87
-159 -113 -246 -37 -127 -47 -430 -13 -430 5 0 6 12 3 28 -7 25 -6 26 11 12
10 -8 16 -10 12 -3 -4 6 -3 14 3 18 5 3 10 5 10 3 14 -108 41 -200 87 -293 41
-84 85 -155 96 -155 4 0 7 -7 7 -16 0 -14 -3 -14 -15 -4 -13 11 -14 10 -9 -4
5 -12 2 -15 -10 -10 -9 3 -16 11 -16 17 0 6 -9 20 -19 31 -26 28 -95 168 -117
236 -10 30 -19 49 -21 43 -7 -21 56 -165 113 -259 l56 -94 28 16 c15 9 27 22
27 28 -1 32 4 46 14 41 6 -4 8 -13 5 -21 -3 -8 0 -11 10 -7 13 5 13 8 1 22
-31 35 -97 170 -126 256 -44 131 -57 248 -43 374 18 158 87 331 182 456 27 36
47 71 45 78 -5 12 43 70 80 97 11 8 -1 -8 -27 -36 -72 -75 -57 -75 24 1 89 82
186 155 258 195 30 16 66 36 80 44 14 8 40 20 58 27 47 17 32 22 -17 6 -53
-19 -53 -12 2 14 23 11 35 18 26 15 -9 -2 -22 1 -29 7 -8 8 -11 8 -7 1z"/>
<path d="M5013 7802 c-6 -4 -9 -15 -7 -25 2 -18 -23 -37 -43 -30 -6 2 -15 -1
-19 -8 -5 -8 -3 -9 6 -4 8 5 11 4 6 -3 -4 -6 -13 -9 -22 -5 -12 4 -12 8 -2 21
10 12 7 11 -14 -2 -15 -10 -26 -22 -23 -26 3 -5 1 -11 -5 -15 -5 -3 -10 -1
-10 6 0 12 -115 -85 -161 -136 -24 -27 -25 -31 -10 -42 14 -11 14 -12 -5 -9
-11 3 -25 1 -30 -2 -15 -10 -78 -102 -102 -147 -39 -74 -85 -200 -80 -216 2
-6 14 22 27 61 12 39 25 70 27 67 2 -2 -5 -29 -15 -59 -38 -111 -51 -264 -31
-382 14 -87 39 -166 52 -163 6 1 13 -5 15 -13 4 -13 3 -13 -6 0 -14 19 -14 0
-1 -35 5 -14 14 -23 20 -20 5 3 7 0 4 -8 -3 -8 2 -14 11 -14 20 0 19 5 -10 70
-95 215 -78 496 42 704 14 23 21 48 17 54 -4 7 -3 9 4 5 6 -3 22 9 36 27 28
36 33 53 14 41 -7 -5 -8 -3 -4 5 5 7 11 10 14 6 7 -7 143 126 137 135 -2 4 1
7 8 7 7 0 47 25 89 56 43 30 83 57 90 59 10 4 10 8 -1 22 -12 14 -12 16 3 10
9 -3 16 -4 16 -1 0 9 -27 15 -37 9z"/>
<path d="M5150 7105 c-2 -11 -4 -24 -4 -30 -1 -5 -5 -16 -10 -24 -5 -8 -3 -16
5 -22 11 -7 11 -9 1 -9 -7 0 -12 -6 -10 -12 4 -22 -13 -59 -24 -52 -6 4 -9 1
-6 -7 2 -7 -5 -21 -16 -30 -17 -14 -18 -19 -7 -33 11 -13 10 -20 -8 -42 -12
-15 -21 -23 -21 -19 0 4 -7 2 -15 -5 -8 -7 -15 -18 -15 -24 0 -6 5 -4 10 4 8
13 10 13 10 -1 0 -9 -10 -27 -22 -41 -13 -14 -24 -32 -26 -39 -5 -22 -44 -59
-55 -52 -6 3 -7 2 -4 -4 6 -10 -29 -49 -88 -98 -16 -14 -31 -20 -33 -15 -6 16
-20 11 -18 -6 0 -9 -5 -19 -13 -22 -9 -3 -11 0 -6 9 5 8 4 11 -1 6 -5 -5 -10
-13 -10 -18 -3 -22 -5 -23 -15 -9 -9 13 -10 12 -5 -2 8 -25 -41 -58 -56 -37
-8 12 -9 11 -5 -2 3 -10 -5 -22 -24 -33 -27 -16 -34 -14 -30 7 1 5 -3 6 -9 2
-8 -5 -8 -11 0 -20 9 -10 6 -15 -12 -21 -13 -4 -27 -7 -31 -6 -5 1 -6 -2 -2
-8 3 -5 3 -10 -2 -10 -4 -1 -21 -12 -38 -27 l-30 -26 30 19 c17 10 72 44 124
76 188 115 325 242 390 360 57 104 68 126 90 180 28 69 42 128 31 128 -5 0
-11 8 -13 18 -4 15 -5 14 -7 -3z"/>
<path d="M3618 6015 c-3 -4 -4 -29 -1 -56 3 -37 1 -49 -9 -49 -8 0 -9 -3 -3
-8 7 -4 11 -81 10 -213 0 -177 -2 -206 -15 -205 -8 1 -16 -3 -17 -9 -3 -13 34
-7 70 11 25 14 36 26 20 22 -14 -2 -43 14 -43 24 0 6 7 5 15 -2 9 -7 18 -10
21 -7 3 3 -3 12 -15 19 -13 8 -21 23 -21 42 0 24 2 27 15 16 9 -7 18 -10 21
-7 3 3 -3 12 -15 19 -12 7 -21 20 -21 28 0 13 1 13 10 0 5 -8 13 -11 17 -6 4
4 0 13 -10 20 -24 19 -21 29 6 16 l22 -11 -22 20 c-13 10 -23 22 -23 25 0 4
10 1 23 -5 l22 -12 -22 25 c-28 30 -30 48 -3 23 11 -10 20 -13 20 -7 0 6 -6
13 -12 16 -10 5 -10 7 0 12 10 5 10 9 1 21 -10 11 -10 16 0 22 10 7 9 12 -6
22 -12 10 -19 28 -19 57 -1 35 1 41 12 31 8 -7 17 -9 20 -6 3 3 -3 12 -15 19
-12 7 -21 19 -21 27 0 11 4 10 19 -4 19 -16 20 -16 19 6 -1 13 -6 29 -11 36
-5 7 -5 18 -1 25 6 11 5 11 -8 0 -11 -9 -17 -9 -20 -2 -2 6 -6 8 -10 5z"/>
<path d="M585 5950 c-71 -16 -105 -60 -100 -133 4 -73 55 -117 135 -117 90 0
140 49 140 135 0 84 -79 136 -175 115z m104 -72 c23 -14 28 -56 11 -88 -22
-41 -129 -37 -156 6 -46 70 64 133 145 82z"/>
<path d="M4795 5902 c-16 -2 -38 -11 -48 -20 -13 -12 -20 -13 -29 -4 -20 20
-73 14 -95 -10 -31 -35 -34 -43 -22 -77 17 -48 88 -78 117 -49 10 10 17 10 32
0 26 -16 110 -16 110 1 0 9 2 9 9 -1 14 -22 41 32 39 77 -2 56 -49 91 -113 83z"/>
<path d="M484 5654 c-20 -80 28 -188 92 -206 47 -14 112 0 147 32 31 27 32 32
36 114 l3 86 -30 0 c-29 0 -30 -2 -26 -37 10 -97 -15 -133 -91 -133 -56 0 -75
27 -75 105 0 63 -1 65 -25 65 -18 0 -26 -7 -31 -26z"/>
<path d="M3471 5655 c-1 -32 18 -104 39 -148 11 -22 20 -42 20 -43 0 -2 -15
-5 -32 -7 -18 -2 -8 -3 22 -1 38 2 49 0 35 -6 -19 -8 -19 -9 3 -9 19 -1 21 -3
10 -15 -7 -8 -15 -10 -16 -5 -2 5 -8 6 -13 3 -17 -10 -120 -13 -113 -3 3 5 10
7 15 4 5 -4 9 -1 9 4 0 15 -37 14 -43 -1 -4 -15 -135 -12 -154 3 -7 6 -12 6
-15 -1 -4 -12 -242 -30 -400 -30 -66 0 -108 -4 -108 -10 0 -6 26 -8 68 -5 224
16 752 28 752 17 0 -1 -11 -19 -25 -40 -42 -63 -66 -149 -66 -236 0 -43 2 -81
5 -84 3 -3 6 33 6 79 0 94 7 132 23 122 6 -4 8 0 4 10 -8 21 7 57 47 116 l29
44 20 -24 c11 -13 24 -23 29 -21 5 1 6 -3 1 -10 -4 -7 -6 -109 -5 -227 1 -147
-1 -218 -9 -227 -9 -11 -9 -14 0 -14 8 0 11 -54 10 -190 -1 -121 -5 -190 -11
-190 -6 0 -5 -6 2 -15 8 -10 9 -15 1 -15 -8 0 -8 -7 0 -24 7 -14 17 -22 25
-19 8 3 14 0 14 -6 0 -6 4 -11 9 -11 5 0 7 10 4 23 -3 13 -1 18 4 11 5 -7 14
-4 25 7 16 17 15 19 -10 45 -15 15 -21 24 -14 20 20 -12 14 8 -8 24 -24 17
-28 62 -5 54 8 -4 15 -10 15 -16 0 -5 -4 -6 -10 -3 -5 3 -10 2 -10 -3 0 -6 6
-12 13 -15 17 -6 20 35 4 45 -9 6 -9 10 1 16 9 6 6 14 -13 30 -16 14 -23 27
-18 35 5 9 8 7 11 -5 3 -18 32 -34 32 -18 0 6 -5 10 -11 10 -6 0 -8 9 -4 20 4
13 1 22 -9 26 -22 8 -20 25 2 17 13 -4 11 0 -6 17 -25 24 -23 41 3 20 13 -11
15 -9 15 12 0 13 -5 29 -12 36 -9 9 -9 12 -1 12 15 0 10 44 -7 65 -11 13 -10
15 2 10 10 -4 14 2 13 19 0 13 -4 28 -9 33 -5 5 -7 1 -3 -9 3 -9 0 -19 -7 -21
-9 -4 -13 6 -13 29 0 36 6 41 24 23 9 -9 11 -4 8 17 -1 15 -11 33 -21 41 -9 7
-15 16 -11 19 4 4 12 2 20 -4 21 -18 16 62 -7 87 -21 23 -15 56 10 47 9 -3 12
-2 9 5 -4 6 -13 8 -21 5 -9 -3 -14 2 -14 14 0 11 7 20 15 20 8 0 15 -5 15 -11
0 -5 5 -7 11 -4 6 5 4 12 -8 21 -14 11 -15 13 -3 14 11 0 9 6 -7 19 -13 11
-23 23 -23 27 0 4 5 3 12 -4 7 -7 15 -12 18 -12 11 0 5 47 -8 63 -9 11 -10 17
-2 22 7 4 10 16 7 26 -4 14 7 24 49 43 30 14 54 27 54 30 0 3 -17 2 -37 -1
-33 -6 -36 -4 -29 13 17 40 19 57 8 50 -7 -4 -12 -16 -12 -26 0 -20 -45 -50
-75 -50 -9 0 -13 -5 -9 -11 5 -8 1 -8 -14 0 -12 6 -24 16 -27 21 -4 6 -10 8
-15 5 -12 -8 -43 53 -34 67 4 7 3 8 -4 4 -7 -4 -12 -1 -13 6 -1 14 -2 23 -17
83 -6 22 -10 31 -11 20z"/>
<path d="M4590 5533 l0 -83 40 0 c33 0 40 4 40 19 0 10 -7 21 -15 25 -20 7
-21 76 -1 76 8 0 17 -4 21 -9 3 -5 22 -15 43 -22 20 -6 44 -17 52 -24 8 -7 33
-18 55 -25 22 -7 44 -16 50 -21 17 -16 36 -10 33 11 -4 26 -200 120 -270 130
l-48 6 0 -83z"/>
<path d="M484 5375 c-4 -14 -5 -28 -3 -30 3 -2 67 -5 144 -6 l140 -3 3 32 3
32 -140 0 -141 0 -6 -25z"/>
<path d="M2693 5344 c3 -4 -1 -23 -9 -43 -9 -20 -18 -75 -21 -123 -5 -77 -3
-94 22 -162 26 -71 27 -83 22 -184 -3 -59 -9 -117 -13 -129 -5 -20 -3 -23 18
-23 17 0 29 -9 39 -30 14 -30 14 -30 27 -9 12 19 12 21 -2 16 -8 -3 -18 -2
-21 3 -9 14 22 15 144 7 134 -9 160 -10 181 -7 35 6 -86 19 -225 26 -82 4
-151 7 -152 8 -1 1 2 19 8 40 6 21 11 77 12 125 1 69 -4 98 -23 146 -34 85
-38 192 -11 273 24 72 25 72 9 72 -6 0 -9 -3 -5 -6z"/>
<path d="M4810 5327 c0 -11 -23 -14 -105 -12 l-105 1 0 -26 c0 -27 -4 -24 152
-91 95 -41 98 -40 98 27 l0 57 30 -6 c27 -6 30 -4 30 17 0 21 -4 24 -29 20
-20 -3 -30 0 -34 11 -8 19 -37 20 -37 2z"/>
<path d="M488 5264 c4 -29 12 -40 48 -62 l43 -27 -44 -29 c-39 -24 -45 -32
-45 -62 l0 -34 69 46 c53 35 73 43 83 35 59 -50 117 -90 121 -84 10 17 -3 68
-20 81 -10 7 -29 21 -42 31 l-23 18 42 31 c34 24 43 38 44 62 1 16 -1 30 -4
30 -5 0 -29 -15 -101 -64 l-35 -24 -67 44 c-36 24 -68 44 -70 44 -1 0 -1 -16
1 -36z"/>
<path d="M2160 5093 c0 -32 28 -105 43 -111 4 -2 7 -9 7 -15 0 -18 44 -97 54
-97 5 0 2 8 -5 18 -11 14 -10 13 9 -2 23 -20 30 -32 11 -20 -8 4 -9 -1 -4 -17
10 -33 14 -36 26 -19 9 13 10 13 8 0 -3 -28 1 -38 17 -44 15 -6 15 -4 3 11
-13 17 -13 17 13 0 31 -19 48 -23 30 -5 -8 8 -8 17 -1 31 8 14 8 18 0 12 -8
-4 -10 1 -6 17 7 26 -16 55 -34 44 -5 -3 -16 13 -26 37 -9 23 -29 54 -43 69
-15 14 -33 33 -40 42 -7 9 -18 16 -24 16 -6 0 -2 -10 10 -23 12 -13 19 -27 15
-30 -3 -4 1 -7 11 -7 14 0 36 -35 36 -57 0 -9 -75 79 -76 89 -1 4 -3 11 -4 16
-1 4 -2 10 -1 14 0 4 -6 19 -14 35 l-15 28 0 -32z"/>
<path d="M4810 5043 c0 -13 -16 -15 -105 -11 l-106 4 3 -31 c2 -21 8 -30 20
-29 10 1 16 -1 13 -5 -4 -7 185 -91 205 -91 5 0 10 24 10 55 l0 55 33 0 c26 0
33 4 34 21 2 19 -3 21 -36 17 -26 -2 -37 0 -34 8 2 6 -5 14 -16 17 -15 3 -21
0 -21 -10z"/>
<path d="M605 5022 c-71 -7 -106 -39 -120 -109 -9 -44 27 -108 68 -123 46 -15
125 -12 158 7 37 22 52 60 54 144 l2 69 -29 0 c-30 0 -30 0 -30 -93 0 -40 -4
-50 -28 -67 -15 -11 -30 -20 -32 -20 -2 0 -2 30 0 68 2 37 0 81 -5 97 -7 26
-12 30 -38 27z"/>
<path d="M3530 5009 c0 -6 9 -9 20 -6 17 4 20 0 21 -26 0 -18 2 -44 4 -60 2
-15 0 -25 -6 -22 -11 7 -11 -24 0 -117 6 -60 5 -69 -11 -74 -10 -3 -18 -15
-17 -27 l0 -22 9 23 c17 40 26 23 26 -45 -1 -51 -4 -67 -14 -65 -8 1 -11 -2
-7 -8 3 -6 11 -8 16 -5 5 4 9 -3 9 -14 0 -20 -14 -29 -23 -13 -2 4 -2 1 -1 -5
2 -7 -1 -13 -7 -13 -5 0 -2 -11 7 -25 10 -15 12 -25 5 -25 -6 0 -11 -5 -11
-11 0 -5 4 -8 9 -5 4 3 17 -2 27 -10 10 -9 14 -13 8 -10 -6 3 -3 -11 7 -32 13
-26 18 -62 19 -122 2 -136 1 -160 -9 -160 -5 0 -11 45 -13 100 -2 55 0 100 3
100 11 0 0 63 -14 77 -13 13 -18 13 -43 -2 l-29 -17 28 22 c26 21 27 24 11 41
-9 10 -13 22 -10 28 4 6 1 19 -5 30 -14 22 -36 18 -61 -13 -13 -16 -20 -18
-29 -9 -14 14 -3 36 14 27 7 -3 -1 7 -18 21 -18 17 -23 25 -12 21 11 -3 16 -2
12 4 -8 13 5 13 25 0 12 -8 12 -10 1 -10 -8 0 -12 -2 -9 -5 8 -8 38 6 38 18 0
6 -3 8 -6 4 -4 -3 -23 2 -43 12 -53 27 -85 36 -76 21 5 -9 1 -10 -16 -5 -18 5
-20 4 -9 -4 8 -6 25 -8 37 -5 12 3 30 1 40 -6 16 -10 16 -11 -5 -7 -12 3 -20
1 -16 -4 7 -12 1 -11 -32 1 -17 7 -30 7 -33 1 -4 -6 -27 -4 -61 5 -73 19 -84
25 -35 20 22 -2 51 0 65 4 15 5 18 8 8 9 -9 1 -25 4 -35 7 -15 5 -16 4 -3 -5
12 -9 7 -10 -20 -6 -19 4 -46 2 -59 -3 -22 -8 -20 -10 25 -21 71 -18 96 -30
89 -41 -5 -9 36 -6 73 6 6 2 12 -1 12 -7 0 -6 5 -7 10 -4 6 3 10 2 10 -4 0 -6
8 -8 18 -5 16 5 16 5 0 -6 -13 -8 -23 -8 -37 0 -26 14 -43 13 -66 -4 -19 -14
-19 -15 0 -38 l20 -23 -24 20 -24 20 7 -25 7 -25 -17 23 c-9 12 -23 22 -30 22
-8 0 -14 9 -14 19 0 23 -18 32 -41 20 -10 -5 -35 -2 -63 7 -26 9 -49 14 -52
11 -3 -3 20 -12 50 -21 31 -9 56 -22 57 -29 5 -60 5 -298 0 -301 -8 -5 -35 16
-38 29 -1 6 -11 27 -21 48 -15 27 -21 33 -26 21 -8 -22 -8 -26 4 -19 6 3 10 1
10 -5 0 -6 7 -19 16 -27 8 -9 12 -19 7 -22 -17 -13 -10 -28 22 -45 30 -16 34
-23 33 -58 0 -24 5 -44 13 -49 8 -5 11 -9 6 -9 -4 0 -24 11 -45 23 -38 25 -72
31 -72 14 0 -5 -11 -7 -24 -5 -14 3 -31 1 -38 -3 -8 -5 9 -9 42 -9 37 0 66 -7
87 -20 31 -19 32 -21 32 -87 -1 -38 4 -69 10 -71 6 -2 7 -12 2 -25 -8 -21 -6
-64 5 -134 4 -24 10 -33 24 -33 11 0 20 6 20 14 0 26 38 26 55 0 22 -33 78
-33 128 1 20 14 42 23 49 19 6 -4 17 1 24 10 15 22 50 13 59 -14 5 -15 14 -19
43 -17 22 2 36 7 35 14 -2 7 10 11 27 11 17 -1 30 -7 30 -13 0 -20 28 -26 45
-9 16 17 21 69 6 78 -4 3 -6 -10 -4 -29 2 -18 0 -36 -5 -39 -4 -2 -7 8 -6 24
1 16 -4 34 -12 41 -11 9 -14 8 -14 -2 -1 -9 -9 -4 -23 11 -21 25 -29 30 -44
30 -5 0 -2 4 6 9 11 7 12 13 4 23 -12 14 -6 97 8 113 12 13 11 42 -2 51 -21
13 -27 -20 -25 -135 1 -64 -1 -129 -5 -146 -4 -16 -7 43 -8 133 0 90 3 161 8
158 4 -3 16 1 27 8 17 13 17 14 -6 12 l-25 -1 -3 155 c-2 137 -5 160 -24 199
-12 24 -28 45 -35 48 -8 3 -10 11 -5 21 5 10 7 55 5 102 -9 233 -9 390 1 390
6 0 5 4 -3 9 -8 5 -12 18 -8 30 4 18 1 21 -24 21 -16 0 -29 -5 -29 -11z m-22
-646 c-1 -10 1 -24 5 -30 11 -17 30 -17 24 0 -3 8 -1 20 5 28 8 11 9 10 4 -3
-6 -21 14 -24 32 -6 9 9 12 7 12 -10 0 -12 -5 -22 -11 -22 -5 0 -7 4 -4 10 4
6 -1 7 -11 3 -15 -5 -15 -7 0 -15 19 -11 22 -78 4 -79 -10 0 -10 -2 0 -6 14
-6 17 -53 2 -53 -5 0 -10 -10 -9 -22 0 -22 1 -22 9 -3 7 16 8 12 8 -17 -1 -21
-5 -35 -9 -33 -7 5 -19 -18 -19 -40 0 -7 8 -16 17 -19 20 -8 44 19 36 40 -3 8
0 14 6 14 6 0 12 -4 12 -10 1 -5 2 -15 3 -20 0 -6 8 -15 16 -21 13 -8 13 -11
-1 -22 -8 -6 -18 -22 -22 -35 -4 -19 -2 -22 11 -17 14 5 15 4 5 -6 -8 -8 -13
-42 -13 -91 0 -55 4 -78 13 -79 10 0 10 -2 0 -6 -8 -2 -13 -22 -13 -44 0 -24
-4 -38 -10 -34 -5 3 -10 21 -10 39 0 17 -6 38 -12 45 -10 11 -10 13 0 7 6 -4
12 -3 12 3 0 5 -8 14 -17 20 -15 8 -16 12 -4 23 8 8 11 8 7 1 -3 -6 -2 -14 4
-18 10 -6 16 74 11 145 -3 40 -20 55 -39 36 -15 -14 -6 -70 9 -60 5 3 9 -3 10
-13 2 -36 -3 -68 -12 -71 -5 -2 -9 -22 -9 -44 0 -77 -9 -32 -11 52 -1 46 -6
92 -12 102 -9 13 -7 21 6 36 16 17 16 21 2 32 -18 15 -19 32 -3 48 7 7 11 45
10 102 -1 54 2 90 8 90 6 0 10 4 10 9 0 4 -11 6 -25 3 -14 -2 -25 -8 -25 -13
0 -5 -6 -9 -14 -9 -11 0 -14 11 -11 43 4 56 4 57 11 57 3 0 4 -8 2 -17z m-56
-216 c3 -129 -4 -277 -12 -252 -1 6 -6 -8 -10 -30 l-7 -40 -2 48 c0 26 -4 47
-8 47 -5 0 -6 -39 -4 -87 1 -49 0 -85 -3 -82 -12 11 -9 233 3 237 6 2 11 26
11 55 0 37 -3 48 -10 37 -8 -12 -10 -9 -10 14 0 22 -4 27 -17 22 -17 -6 -17
-5 0 8 20 15 23 66 5 66 -9 0 -8 4 2 10 13 9 13 11 0 20 -9 6 -10 10 -3 10 6
0 13 8 15 18 3 9 5 -7 6 -37 2 -77 12 -77 14 0 1 62 1 63 8 19 l7 -45 1 48 c1
26 -2 47 -8 47 -5 0 -10 4 -10 10 0 5 7 7 14 4 12 -5 16 -35 18 -147z m-110
108 c3 -14 2 -25 -2 -25 -4 0 -8 -27 -8 -60 -1 -61 13 -83 21 -32 2 15 2 3 0
-26 -4 -44 -1 -56 14 -67 17 -13 17 -15 -4 -30 -13 -9 -20 -22 -17 -30 4 -8 9
-13 13 -11 3 2 4 -14 1 -37 -4 -40 -5 -40 -8 -9 -5 53 -19 36 -19 -24 1 -49 2
-54 14 -38 11 16 13 16 13 2 0 -9 -4 -20 -10 -23 -5 -3 -10 -17 -10 -31 0 -14
-4 -23 -9 -20 -13 9 -13 156 0 172 8 10 8 14 1 14 -6 0 -14 -4 -17 -10 -3 -5
-12 -10 -19 -10 -10 0 -13 29 -13 124 0 101 2 123 13 119 8 -3 14 -12 14 -20
0 -8 -4 -11 -10 -8 -5 3 -10 2 -10 -4 0 -5 5 -13 11 -17 8 -4 7 -9 -2 -15 -11
-7 -11 -9 1 -9 11 0 12 -2 3 -8 -9 -6 -8 -12 7 -25 11 -9 22 -12 25 -7 4 6 1
10 -5 10 -7 0 -10 30 -9 90 2 87 12 116 21 65z"/>
<path d="M2410 4848 c0 -10 49 -101 61 -112 6 -6 9 -5 9 5 0 8 10 2 25 -16 32
-39 32 -58 0 -22 -14 15 -25 25 -25 20 0 -4 -11 5 -25 20 -14 15 -30 27 -36
27 -6 0 -8 9 -4 19 3 11 1 22 -5 26 -5 3 -10 1 -10 -5 0 -7 -7 -9 -17 -6 -16
6 -16 6 0 -12 9 -10 15 -21 12 -24 -10 -9 57 -69 70 -64 7 2 21 -5 32 -16 11
-13 12 -18 3 -13 -12 8 -51 15 -87 18 -7 0 -13 4 -13 8 0 4 6 9 13 12 7 2 1
10 -15 17 -15 7 -25 16 -23 20 9 14 -25 34 -36 23 -8 -8 -2 -16 20 -29 17 -10
27 -21 22 -24 -5 -3 18 -32 51 -65 33 -33 57 -54 53 -46 -6 11 -2 13 21 8 l29
-6 -30 14 c-16 8 -35 14 -40 15 -6 0 -16 10 -23 21 -13 21 -12 21 15 14 15 -5
38 -9 50 -10 13 -1 26 -5 30 -10 5 -4 2 -5 -4 -1 -7 4 -13 4 -13 -1 0 -12 72
-58 86 -55 7 1 15 -2 19 -8 3 -6 0 -7 -9 -4 -9 3 -16 1 -16 -5 0 -10 20 -16
42 -12 4 0 5 -6 2 -14 -4 -11 -20 -15 -53 -14 l-46 2 40 7 40 8 -48 -1 c-65
-1 -55 -21 14 -27 41 -4 53 -9 51 -20 -12 -52 -14 -50 41 -48 l52 1 -45 7
c-42 6 -43 6 -15 12 30 5 30 5 3 7 -20 1 -26 5 -22 16 4 8 13 15 22 15 12 0
12 4 -4 21 -10 12 5 5 33 -15 51 -36 71 -56 58 -56 -4 0 -21 11 -38 24 -24 18
-36 22 -47 15 -13 -8 -13 -9 1 -7 17 3 128 -70 129 -84 0 -5 4 -8 10 -8 9 0
17 -6 72 -52 20 -17 20 -17 -5 -23 -14 -4 -34 -5 -44 -2 -12 3 -8 5 10 6 18 1
27 6 24 14 -2 8 -26 12 -70 12 -37 0 -67 3 -67 8 0 4 11 7 24 7 14 0 28 5 31
10 7 11 -27 12 -65 1 -17 -5 -21 -9 -12 -15 6 -4 12 -13 12 -19 -1 -7 -10 -1
-21 12 -11 13 -18 26 -15 28 2 2 26 8 53 13 l48 8 -56 -1 c-49 -2 -56 -4 -53
-20 6 -32 -6 -48 -27 -36 -11 5 -25 7 -31 3 -6 -4 -8 -3 -5 3 4 6 -8 20 -26
32 -23 15 -27 21 -14 21 10 0 16 4 13 8 -3 5 1 9 9 9 8 0 12 -4 9 -9 -3 -4 -1
-8 5 -8 6 0 8 -7 5 -15 -4 -8 -1 -15 5 -15 10 0 15 14 12 33 -1 8 4 9 79 9
l55 0 -65 8 c-36 4 -68 6 -72 4 -4 -3 -9 0 -13 6 -4 6 -11 7 -17 4 -7 -4 -8
-2 -4 4 4 7 -7 17 -27 26 -19 8 -38 19 -41 25 -4 6 -13 11 -19 11 -7 0 -6 -4
3 -10 8 -5 11 -10 6 -10 -5 0 -23 15 -38 33 -16 17 -27 27 -24 21 3 -7 -1 -15
-10 -18 -11 -4 -15 -2 -11 8 3 8 -2 20 -11 28 -15 12 -16 11 -3 -4 10 -13 10
-18 1 -18 -6 0 -14 8 -17 18 -6 24 -104 67 -114 50 -6 -10 -12 -8 -22 6 -12
17 -20 18 -47 10 -19 -5 -35 -16 -37 -24 -3 -10 -2 -11 4 -4 11 14 53 25 53
13 0 -5 -8 -9 -17 -10 -15 0 -15 -2 2 -9 11 -5 44 -31 74 -59 52 -49 74 -65
54 -38 -6 6 -10 27 -10 46 0 19 -4 36 -11 39 -7 2 -9 -6 -6 -23 4 -23 3 -25
-15 -15 -12 6 -25 20 -31 33 -10 20 -10 21 3 4 15 -18 34 -7 22 13 -3 5 7 5
25 -2 17 -5 29 -15 27 -22 -2 -6 5 -15 16 -21 11 -5 22 -17 24 -25 4 -13 3
-13 -9 0 -7 8 -19 16 -26 18 -14 2 -16 -14 -3 -23 6 -3 8 -14 6 -25 -2 -10 3
-24 11 -30 7 -7 11 -16 8 -21 -3 -5 0 -9 7 -9 7 0 24 -10 37 -22 19 -18 24
-19 19 -6 -9 26 28 33 52 9 17 -17 18 -21 5 -32 -9 -7 -14 -8 -12 -2 3 11 -1
13 -22 13 -14 0 22 -49 36 -50 6 0 32 -16 57 -35 25 -19 52 -35 59 -34 7 0 4
4 -7 9 -19 8 -19 9 2 9 12 1 25 -4 28 -9 4 -6 12 -7 18 -4 7 4 8 3 4 -2 -5 -5
-13 -10 -18 -10 -5 -1 -12 -2 -16 -3 -5 0 8 -9 27 -19 19 -10 39 -16 44 -13 5
2 -1 8 -13 13 -18 6 -21 11 -12 22 9 11 5 16 -20 25 -18 6 -40 11 -50 11 -11
0 -19 5 -19 11 0 5 4 8 9 5 5 -4 21 -2 35 4 21 7 26 6 26 -5 0 -8 4 -15 9 -15
4 0 8 8 8 18 0 43 2 46 21 29 10 -10 21 -15 24 -11 3 3 16 -9 28 -25 24 -35
17 -40 -20 -11 -30 23 -52 26 -44 5 3 -8 9 -14 12 -13 4 0 14 0 22 -2 11 -1
10 -4 -5 -11 -16 -7 -14 -8 9 -4 22 5 27 3 23 -9 -4 -9 4 -18 24 -26 16 -7 29
-17 29 -22 0 -6 11 -7 25 -4 19 5 23 3 19 -9 -4 -10 0 -15 11 -15 9 0 13 5 9
11 -3 6 8 3 25 -5 17 -9 31 -19 31 -22 0 -2 -9 0 -19 6 -27 14 -34 13 -28 -4
3 -8 -1 -17 -9 -20 -33 -13 19 -45 83 -51 18 -2 31 1 28 5 -3 4 6 7 20 6 14 0
25 -4 25 -8 0 -5 7 -8 15 -8 8 0 15 -5 15 -11 0 -5 -4 -8 -9 -4 -6 3 -31 7
-58 9 -39 3 -43 2 -23 -6 14 -6 33 -14 44 -20 13 -7 16 -6 10 3 -5 9 -1 11 14
7 12 -4 25 -2 28 3 3 6 11 5 20 -2 10 -8 18 -9 27 0 8 6 17 8 20 4 13 -13 7 7
-12 39 -21 34 -19 51 4 41 8 -3 15 0 15 6 0 6 -6 11 -13 11 -17 0 -56 -29 -39
-30 6 0 12 -5 12 -11 0 -5 -4 -7 -10 -4 -5 3 -10 1 -10 -4 0 -6 6 -11 14 -11
8 0 16 -7 20 -15 7 -20 -1 -18 -59 15 -27 15 -49 33 -47 40 1 6 -2 9 -8 5 -6
-4 -33 7 -60 24 -28 17 -54 31 -59 31 -4 0 -20 9 -33 20 -14 10 -28 17 -31 14
-2 -3 -15 9 -27 26 -12 17 -19 34 -16 37 3 4 6 3 6 -2 0 -4 7 -2 15 5 9 7 18
10 22 6 3 -3 1 -6 -6 -6 -7 0 -9 -5 -6 -10 4 -6 10 -8 15 -5 5 3 15 -3 22 -14
11 -18 14 -18 41 -5 15 9 34 13 40 11 7 -3 -1 -10 -18 -17 -47 -20 -54 -20
-70 3 -10 14 -15 16 -15 7 0 -9 -5 -8 -15 6 -8 10 -15 14 -15 8 0 -6 7 -17 15
-24 8 -7 15 -9 15 -4 0 5 9 -2 20 -16 12 -16 20 -20 20 -11 0 11 4 9 15 -5 8
-10 15 -15 15 -10 0 5 7 2 17 -5 15 -13 15 -12 4 9 -7 13 -17 20 -24 16 -8 -5
-9 -4 -2 3 6 6 21 14 35 17 20 6 22 5 8 -4 -14 -9 -15 -14 -3 -36 7 -14 16
-25 20 -24 4 1 12 -4 16 -12 7 -10 9 -10 10 2 0 10 3 8 9 -5 8 -18 9 -18 9 -2
1 10 7 17 14 16 6 -1 19 -1 27 0 12 1 12 4 -3 12 -9 5 -23 7 -30 2 -17 -11
-37 -13 -37 -3 0 4 12 11 27 15 35 8 45 25 30 45 -11 13 -10 13 6 1 9 -8 21
-10 25 -6 4 4 2 10 -5 12 -32 12 -63 46 -58 64 7 22 -8 54 -30 63 -12 4 -15 0
-13 -22 2 -22 -1 -26 -16 -24 -18 3 -19 2 -5 -15 13 -16 13 -17 -3 -4 -10 7
-15 17 -13 22 3 4 -24 30 -60 58 -36 27 -66 53 -67 58 0 15 -20 45 -25 39 -3
-3 0 -14 8 -23 7 -10 2 -8 -12 5 -14 12 -31 22 -37 22 -6 0 -19 11 -28 25 -9
14 -20 23 -24 20 -4 -2 -15 4 -25 15 -10 11 -24 20 -31 20 -7 0 -24 15 -38 33
-27 36 -33 53 -15 41 8 -4 9 0 4 15 -10 34 1 25 35 -29 35 -55 44 -62 35 -27
-5 20 -4 21 7 3 29 -41 50 -67 54 -63 6 6 -26 67 -35 67 -4 0 -14 11 -21 25
-8 14 -20 23 -27 21 -7 -3 -16 1 -20 9 -5 7 -14 15 -22 17 -8 2 -27 17 -43 33
l-29 30 26 -39 c14 -21 25 -44 25 -49 0 -15 -10 -3 -55 63 -20 30 -41 55 -46
55 -5 0 -14 7 -19 15 -5 8 -10 12 -10 8z"/>
<path d="M4764 4755 c-13 -10 -34 -12 -70 -8 -45 5 -54 2 -72 -18 -27 -28 -29
-80 -4 -102 36 -33 52 -19 31 27 -9 20 -9 29 1 41 18 22 51 19 57 -5 7 -25 40
-19 62 11 19 27 77 26 91 -1 13 -25 4 -60 -16 -60 -8 0 -14 -9 -14 -20 0 -27
26 -25 55 5 52 51 17 130 -61 140 -27 3 -48 -1 -60 -10z"/>
<path d="M400 4682 l0 -38 135 -44 c74 -25 135 -48 135 -51 0 -3 -33 -16 -72
-28 -40 -12 -82 -26 -93 -31 -11 -5 -40 -15 -65 -23 -43 -14 -44 -16 -46 -56
l-1 -41 182 0 c171 0 183 1 188 19 9 35 -6 40 -128 43 l-120 3 122 40 c121 40
123 40 123 71 0 28 -3 31 -52 43 -29 8 -57 17 -63 21 -5 4 -37 16 -70 26 l-60
19 125 5 125 5 0 28 1 27 -183 0 -183 0 0 -38z"/>
<path d="M2699 4606 c24 -38 28 -59 6 -30 -8 10 -15 14 -15 8 0 -6 7 -17 15
-24 8 -7 15 -9 15 -5 0 4 6 2 14 -4 11 -9 15 -9 18 0 2 7 14 -4 27 -24 24 -39
94 -100 104 -90 3 3 -3 23 -13 44 -30 58 -24 61 10 4 32 -53 37 -71 18 -59 -7
4 -8 3 -4 -5 4 -6 12 -9 17 -6 5 4 9 -1 9 -9 0 -9 4 -16 9 -16 10 0 -14 66
-31 88 -6 7 -8 15 -5 18 3 4 14 -9 23 -29 9 -20 22 -33 29 -31 17 7 57 -46 52
-68 -3 -10 4 -23 19 -33 19 -12 22 -13 18 -1 -4 10 0 14 12 12 10 -2 20 -9 22
-16 3 -7 0 -10 -7 -6 -7 5 -9 1 -4 -9 4 -12 8 -13 13 -5 4 7 10 8 12 4 3 -5 3
-2 0 6 -3 8 -4 23 -4 32 1 17 -17 20 -29 5 -3 -4 -10 9 -17 29 -9 30 -8 35 4
30 8 -3 14 -1 14 4 0 6 -11 10 -25 10 -25 0 -25 0 -10 -37 8 -20 13 -38 10
-41 -2 -3 -9 8 -15 24 -5 16 -15 37 -21 48 -8 14 -8 16 2 11 7 -5 10 -3 7 6
-3 9 -16 13 -35 11 -25 -2 -32 1 -37 21 -3 13 -17 29 -31 35 -14 7 -28 19 -32
28 -4 12 -8 13 -14 3 -5 -9 -13 -4 -26 19 -10 17 -22 30 -28 28 -5 -2 -18 4
-28 12 -25 22 -47 24 -40 4 4 -10 2 -13 -5 -8 -7 4 -12 13 -12 21 0 7 -7 16
-16 19 -12 5 -11 -1 5 -28z"/>
<path d="M4702 4480 c-72 -6 -102 -30 -102 -82 0 -49 39 -78 107 -79 32 -1 72
-2 88 -4 42 -2 83 13 100 38 17 24 21 82 5 72 -5 -3 -7 0 -4 8 13 36 -73 57
-194 47z m155 -59 c15 -19 16 -31 4 -49 -11 -18 -188 -27 -208 -11 -17 14 -17
53 0 67 29 24 184 19 204 -7z"/>
<path d="M3630 4428 c0 -4 8 -24 19 -45 16 -32 18 -59 17 -181 -2 -96 1 -141
8 -138 6 2 10 10 8 17 -7 27 -3 122 5 128 4 3 9 17 11 31 1 13 6 27 10 30 5 3
12 13 15 24 5 11 13 16 23 12 9 -4 23 -1 30 5 15 12 20 74 5 65 -5 -3 -7 -15
-4 -25 3 -10 1 -21 -4 -24 -4 -3 -8 9 -8 26 0 22 -5 32 -15 32 -8 0 -18 4 -21
8 -3 5 -16 -3 -27 -18 -18 -22 -23 -24 -28 -12 -3 9 -2 22 2 29 4 7 4 10 -1 6
-4 -4 -16 3 -26 15 -10 12 -18 19 -19 15z"/>
<path d="M4870 4154 c0 -30 -3 -54 -7 -54 -5 0 -19 9 -33 20 -14 11 -28 20
-32 20 -4 0 -29 14 -55 30 -26 17 -57 30 -68 30 -33 0 -65 -34 -72 -74 -5 -31
-1 -40 27 -66 18 -16 38 -30 46 -30 22 0 17 41 -5 47 -38 10 -38 66 0 76 24 6
65 -15 157 -80 80 -58 85 -54 83 63 -1 53 -4 62 -21 67 -18 5 -20 0 -20 -49z"/>
<path d="M542 4135 c-35 -15 -62 -63 -62 -110 0 -77 80 -132 168 -115 56 10
95 30 101 50 3 8 6 52 9 98 l4 82 -29 0 -29 0 0 -74 c1 -41 -1 -77 -4 -79 -3
-3 -17 -8 -33 -12 l-27 -7 0 91 0 91 -32 0 c-18 -1 -48 -7 -66 -15z"/>
<path d="M4626 3889 c-21 -25 -26 -41 -26 -85 l0 -55 158 3 c148 3 157 4 157
23 0 17 -7 19 -75 20 l-75 0 -1 38 c-2 82 -87 117 -138 56z"/>
<path d="M397 3853 c-4 -3 -7 -17 -7 -30 0 -21 4 -23 54 -23 l55 0 -11 -31
c-13 -38 2 -97 33 -125 30 -27 162 -27 201 0 35 23 55 83 40 124 -5 16 -6 35
-2 42 4 7 5 21 3 31 -5 18 -17 19 -182 19 -98 0 -181 -3 -184 -7z m297 -74
c68 -54 -10 -125 -108 -98 -58 16 -71 55 -31 94 32 33 100 35 139 4z"/>
<path d="M5492 2558 c1 -502 6 -1014 9 -1138 4 -124 7 -362 8 -529 1 -167 5
-300 9 -296 8 7 5 669 -4 970 -3 105 -6 576 -7 1047 -1 472 -6 858 -10 858 -5
0 -7 -411 -5 -912z"/>
<path d="M558 3433 c-68 -34 -87 -111 -47 -183 18 -31 30 -41 66 -49 44 -12
102 -7 136 11 26 13 57 68 57 101 0 41 -25 93 -54 112 -32 22 -122 26 -158 8z
m101 -49 c18 -4 39 -17 47 -29 46 -71 -69 -140 -140 -84 -39 31 -30 90 17 109
28 11 37 11 76 4z"/>
<path d="M490 3101 c0 -110 49 -171 137 -171 97 0 143 53 143 165 l0 65 -30 0
-30 0 0 -63 c0 -35 -6 -71 -12 -80 -17 -22 -65 -28 -107 -14 -40 14 -50 39
-46 111 3 45 2 46 -26 46 -29 0 -29 -1 -29 -59z"/>
<path d="M573 2882 c-56 -4 -83 -37 -83 -102 0 -45 15 -106 30 -123 4 -5 58
-8 120 -8 116 -1 134 5 127 41 -2 12 -22 15 -107 15 l-105 0 -9 43 c-14 66 1
75 121 77 l98 2 2 29 1 29 -76 0 c-43 0 -96 -1 -119 -3z"/>
<path d="M537 2592 c-27 -5 -47 -56 -47 -121 0 -79 6 -91 42 -91 25 0 29 3 23
18 -4 9 -10 41 -13 69 -4 43 -1 54 12 59 21 8 27 3 29 -25 1 -11 4 -21 7 -21
3 0 6 -10 7 -23 4 -68 50 -114 102 -102 60 13 87 82 60 152 -7 19 -7 29 0 31
6 2 11 16 11 30 l0 27 -108 0 c-59 0 -115 -1 -125 -3z"/>
<path d="M592 2294 c-12 -8 -22 -22 -22 -31 0 -16 -1 -16 -12 0 -33 42 -123
36 -143 -10 -5 -13 -12 -23 -15 -23 -3 0 -5 -44 -4 -97 l1 -98 181 -3 182 -2
0 99 c0 55 -4 111 -10 125 -18 49 -111 73 -158 40z m96 -60 c19 -13 22 -23 20
-72 -1 -31 1 -62 4 -67 4 -6 -15 -9 -53 -7 l-59 4 0 61 c0 87 34 119 88 81z"/>
<path d="M1912 1907 c-12 -7 -29 -23 -38 -36 -15 -21 -15 -25 3 -49 13 -18 38
-32 72 -41 59 -16 70 -41 17 -41 -21 0 -36 6 -40 15 -3 8 -16 15 -30 15 -19 0
-23 -4 -19 -20 8 -31 42 -50 88 -50 53 0 85 23 85 59 0 36 -17 50 -77 65 -55
14 -70 41 -30 51 29 8 67 -9 67 -29 0 -9 10 -13 25 -12 31 1 32 17 2 52 -27
31 -88 41 -125 21z"/>
<path d="M2143 1905 c-40 -17 -57 -48 -54 -102 1 -31 9 -52 28 -73 22 -26 34
-30 75 -30 41 0 54 5 79 29 48 49 38 140 -21 174 -34 20 -64 21 -107 2z"/>
<path d="M2356 1899 c-19 -15 -26 -30 -26 -54 0 -27 5 -35 33 -48 17 -8 47
-18 65 -22 44 -9 43 -35 -3 -35 -18 0 -38 6 -42 13 -10 17 -53 29 -53 15 0
-32 55 -77 88 -72 6 1 21 2 32 3 28 2 60 36 60 65 0 30 -32 54 -83 63 -41 6
-59 29 -36 44 23 14 48 10 66 -11 10 -11 28 -20 40 -20 23 0 23 1 8 30 -8 16
-24 34 -34 40 -32 17 -86 12 -115 -11z"/>
<path d="M3133 1900 c-35 -21 -43 -54 -20 -82 12 -15 51 -32 99 -42 19 -4 26
-11 22 -21 -8 -21 -51 -19 -70 4 -16 18 -54 18 -54 -1 0 -5 11 -20 25 -33 45
-46 145 -22 145 34 0 35 -22 55 -83 71 -35 9 -47 17 -45 29 5 25 63 27 80 3
16 -23 58 -39 58 -22 0 17 -21 53 -39 67 -24 19 -82 15 -118 -7z"/>
<path d="M3375 1911 c-79 -33 -78 -171 1 -201 96 -37 180 49 140 143 -24 58
-82 82 -141 58z"/>
<path d="M3693 1913 c-9 -3 -13 -30 -13 -84 0 -71 3 -83 25 -104 27 -28 47
-30 129 -14 l57 12 -2 91 c-1 50 -3 94 -5 97 -2 4 -14 4 -27 2 -23 -5 -24 -8
-23 -80 1 -75 1 -76 -27 -86 -20 -6 -37 -6 -53 2 -22 10 -24 16 -24 85 0 73
-7 89 -37 79z"/>
<path d="M3930 1894 c0 -23 3 -24 59 -24 41 0 65 -5 75 -16 31 -30 18 -36 -65
-32 l-80 3 6 -35 c13 -71 80 -105 150 -76 94 40 62 195 -42 197 -21 0 -53 2
-70 3 -29 3 -33 1 -33 -20z"/>
<path d="M4278 1912 c-10 -2 -18 -12 -18 -23 0 -16 7 -19 50 -19 77 0 111 -45
74 -98 -12 -18 -25 -22 -70 -22 -47 0 -54 -3 -54 -19 0 -16 8 -20 38 -23 94
-8 157 33 157 103 0 57 -38 91 -107 99 -29 3 -61 4 -70 2z"/>
<path d="M4522 1910 c-26 -11 -43 -49 -35 -78 5 -20 31 -34 83 -46 14 -3 32
-10 40 -16 13 -9 13 -11 0 -20 -21 -14 -46 -12 -62 4 -15 14 -58 31 -58 22 0
-26 29 -58 60 -67 49 -15 91 -1 109 35 12 25 11 31 -8 57 -26 35 -26 39 -1 39
29 0 25 34 -6 59 -28 22 -82 27 -122 11z"/>
<path d="M4738 1896 c-24 -20 -28 -31 -28 -77 0 -65 17 -93 65 -109 43 -14 97
1 120 33 25 36 19 110 -11 146 -22 26 -33 31 -72 31 -35 0 -54 -6 -74 -24z"/>
<path d="M5040 1906 c-59 -15 -90 -59 -90 -128 0 -104 43 -138 175 -138 l85 0
0 139 0 140 -62 -1 c-35 -1 -83 -6 -108 -12z m119 -132 l2 -97 -56 5 c-77 6
-100 30 -99 100 1 67 25 88 98 88 l52 0 3 -96z"/>
<path d="M2547 1890 c4 -17 14 -20 55 -20 56 0 88 -13 88 -36 0 -13 -13 -15
-72 -13 l-73 2 -3 -31 c-5 -48 42 -92 98 -92 54 0 79 14 95 55 22 51 1 124
-41 144 -14 6 -54 11 -89 11 -58 0 -63 -2 -58 -20z"/>
<path d="M2939 1893 c-1 -10 0 -34 1 -54 l1 -37 -70 -4 c-80 -4 -104 -20 -114
-75 -5 -25 -1 -39 17 -60 22 -25 30 -27 120 -31 l96 -4 0 141 0 141 -25 0
c-17 0 -25 -6 -26 -17z"/>
<path d="M3540 1890 c0 -13 7 -20 19 -20 15 0 18 -9 20 -60 2 -59 1 -60 -26
-61 -15 0 -22 -3 -15 -6 6 -2 12 -11 12 -19 0 -8 7 -14 15 -14 10 0 15 -10 15
-30 0 -26 4 -30 26 -30 23 0 26 3 21 26 -3 19 0 28 12 31 23 6 25 43 3 43 -14
0 -17 10 -18 63 0 85 -6 97 -49 97 -28 0 -35 -4 -35 -20z"/>
<path d="M3022 1492 c-69 -25 -118 -72 -152 -147 -42 -91 -55 -180 -55 -360 1
-243 36 -375 125 -462 95 -96 269 -89 359 14 52 58 80 134 97 258 26 192 8
426 -41 533 -66 144 -201 211 -333 164z m171 -18 c94 -32 157 -134 186 -298
16 -88 13 -348 -4 -429 -15 -74 -55 -169 -83 -201 -39 -44 -95 -69 -164 -74
-58 -4 -75 -1 -122 22 -122 60 -165 172 -173 458 -6 205 6 294 53 393 57 122
178 173 307 129z"/>
<path d="M3080 1435 c11 -19 16 -35 12 -35 -4 0 -15 14 -24 30 -20 34 -41 38
-81 12 -92 -61 -131 -170 -143 -404 -6 -104 -4 -128 7 -128 9 0 10 -3 3 -10
-22 -22 18 -215 60 -290 52 -92 109 -124 211 -118 133 9 190 71 231 254 27
123 25 397 -5 489 -5 17 -12 43 -15 58 -4 17 -11 25 -18 21 -7 -4 -8 -3 -4 4
10 16 -12 54 -26 46 -7 -4 -8 -2 -4 5 10 16 -10 38 -63 73 -36 22 -56 28 -103
28 l-58 0 20 -35z m77 -87 c15 -6 34 -10 41 -9 6 1 13 -3 13 -9 1 -5 3 -22 4
-37 1 -16 7 -53 13 -83 6 -30 14 -102 17 -158 3 -57 6 -107 6 -110 1 -4 0 -9
-1 -12 -1 -3 -4 -43 -6 -90 -5 -109 -28 -183 -66 -215 -16 -14 -36 -25 -43
-25 -23 0 -28 -20 -10 -46 9 -14 14 -28 12 -31 -3 -3 -13 9 -22 27 -9 18 -14
35 -10 38 3 3 -9 11 -27 16 -41 14 -74 62 -89 134 -14 63 -18 351 -7 449 16
140 81 200 175 161z"/>
<path d="M3072 1334 c-17 -7 -38 -26 -46 -43 -39 -74 -46 -460 -12 -577 39
-128 151 -132 192 -6 27 82 27 437 0 529 -27 91 -72 124 -134 97z m75 -19 c12
-8 30 -36 40 -62 16 -42 18 -79 18 -278 0 -197 -3 -237 -18 -276 -34 -88 -109
-89 -152 -4 -18 36 -19 62 -20 270 0 284 7 328 60 354 29 14 48 13 72 -4z"/>
<path d="M3697 1499 c-91 -21 -169 -112 -203 -234 -24 -89 -31 -374 -11 -487
37 -216 131 -318 291 -318 161 1 248 99 282 321 18 120 14 340 -10 450 -44
204 -179 308 -349 268z m161 -24 c43 -19 107 -77 129 -120 44 -82 55 -146 60
-336 7 -255 -20 -384 -98 -473 -42 -48 -125 -80 -193 -74 -192 16 -281 199
-271 558 7 252 57 378 174 440 45 24 147 26 199 5z"/>
<path d="M3658 1450 c-97 -52 -145 -174 -155 -395 -11 -255 31 -434 121 -513
55 -48 137 -64 218 -42 28 8 36 15 32 28 -5 14 -4 15 5 2 8 -12 16 -9 46 20
71 69 103 180 110 380 9 278 -49 461 -166 520 -52 27 -160 27 -211 0z m68 -33
c3 -11 15 -30 27 -41 l20 -21 -7 30 -6 30 15 -26 c15 -27 45 -46 45 -29 0 6
-3 10 -8 10 -6 0 -25 31 -50 83 -2 4 2 7 7 7 6 0 11 -6 11 -14 0 -8 6 -21 13
-28 6 -7 19 -26 27 -43 8 -16 23 -41 32 -55 27 -38 48 -133 48 -215 0 -53 4
-75 13 -76 9 0 9 -2 0 -5 -17 -7 -7 -47 27 -101 16 -27 35 -59 42 -73 7 -14
17 -29 23 -33 6 -5 4 -7 -5 -5 -8 3 -21 18 -29 34 -8 16 -17 31 -21 34 -3 3
-12 20 -19 38 -8 18 -16 34 -20 36 -12 8 -10 -98 2 -113 8 -10 8 -13 0 -8 -7
5 -12 -9 -15 -43 -1 -28 0 -50 3 -50 3 0 21 -27 38 -60 18 -33 28 -60 23 -60
-5 0 -21 26 -37 58 -17 34 -30 51 -33 42 -11 -36 -37 -86 -48 -93 -10 -6 -8
-16 9 -45 16 -28 17 -34 5 -24 -10 8 -20 22 -23 33 -5 14 -12 18 -31 13 -13
-3 -40 -3 -60 0 -51 10 -90 75 -100 164 -4 42 -13 72 -23 80 -9 7 -11 11 -4 7
9 -4 12 26 12 122 0 70 3 158 7 194 5 62 4 69 -26 118 -18 29 -30 55 -26 58 7
8 6 9 36 -52 l24 -50 13 33 c12 29 11 36 -12 72 -14 22 -25 45 -25 52 0 7 12
-8 27 -35 l26 -47 22 20 c12 11 27 20 33 20 16 0 16 3 -15 57 -16 30 -20 43
-10 35 9 -8 19 -23 23 -35z"/>
<path d="M3735 1340 c-69 -27 -85 -99 -81 -370 4 -229 10 -270 52 -320 20 -23
34 -30 62 -30 73 1 99 43 113 186 13 129 4 368 -16 439 -21 75 -77 116 -130
95z m80 -34 c40 -40 48 -88 52 -313 4 -174 2 -222 -11 -267 -41 -140 -147
-122 -176 29 -18 94 -18 412 1 484 22 86 84 117 134 67z"/>
<path d="M4120 1410 l0 -100 58 -1 c31 0 110 0 175 1 64 1 117 -1 117 -4 0 -2
-60 -70 -133 -150 -165 -181 -198 -240 -205 -364 -3 -47 0 -100 7 -125 17 -60
71 -129 127 -163 46 -27 55 -29 159 -29 103 0 113 2 164 30 69 38 107 85 131
164 17 54 26 109 18 112 -2 0 -44 6 -95 13 l-91 12 -11 -56 c-17 -86 -68 -120
-148 -98 -63 17 -89 97 -61 190 12 39 50 87 212 265 49 54 106 124 127 156 42
65 79 165 79 214 l0 33 -315 0 -315 -1 0 -99z m614 43 c-22 -116 -93 -226
-268 -410 -114 -121 -141 -159 -154 -221 -15 -66 -4 -118 33 -158 29 -30 38
-34 85 -34 46 0 56 4 85 33 24 24 35 46 40 81 l7 47 37 -5 c20 -3 57 -8 82
-11 l46 -6 -9 -51 c-11 -61 -47 -134 -80 -165 -64 -60 -207 -87 -306 -58 -179
53 -243 252 -145 452 17 34 73 104 148 185 66 72 128 143 138 159 l19 29 -29
1 c-15 0 -95 1 -178 2 l-150 2 -3 83 -4 82 307 0 306 0 -7 -37z"/>
<path d="M4167 1472 c-14 -3 -17 -15 -17 -68 l0 -64 30 0 c32 0 39 16 18 40
-11 12 -10 12 5 1 9 -7 17 -20 17 -28 0 -11 17 -13 85 -12 82 2 84 2 74 23 -9
20 -9 19 10 -2 17 -20 27 -22 75 -19 31 2 56 0 56 -5 0 -11 -49 -88 -70 -108
-8 -9 -39 -41 -69 -72 l-54 -56 23 -39 c19 -34 20 -35 2 -15 -11 12 -22 27
-24 34 -7 19 -85 -73 -125 -147 -36 -67 -38 -74 -38 -165 1 -78 4 -102 22
-135 47 -89 136 -139 241 -136 136 4 230 71 264 186 21 72 24 68 -68 78 -40 5
-40 5 -52 -39 -7 -24 -25 -58 -41 -76 -27 -31 -34 -33 -93 -33 -99 0 -148 51
-149 155 -1 77 37 154 118 238 151 156 138 138 119 166 -9 15 -13 26 -8 26 5
0 13 -10 18 -21 9 -21 13 -19 56 32 54 64 71 95 62 111 -4 6 -3 8 3 5 5 -4 15
4 21 16 17 37 42 107 42 120 0 9 -61 12 -268 12 -147 0 -275 -1 -285 -3z"/>
<path d="M560 395 c0 -17 -16 -20 -25 -5 -12 19 -25 10 -25 -17 0 -14 8 -35
18 -46 15 -18 15 -20 1 -15 -14 6 -16 -3 -15 -65 1 -51 5 -76 16 -84 12 -10
13 -12 1 -13 -8 0 -12 -3 -8 -6 10 -10 28 7 20 19 -4 7 -9 20 -10 30 -2 14 1
17 16 12 15 -5 20 -1 23 19 2 20 6 23 18 16 11 -7 12 -12 3 -21 -6 -6 -9 -18
-6 -25 8 -22 33 10 26 35 -3 11 -1 21 5 21 6 0 8 9 5 20 -4 14 0 20 12 20 12
0 15 -5 10 -17 -4 -10 -9 -35 -12 -55 -3 -21 -10 -38 -14 -38 -5 0 -9 -8 -8
-17 0 -11 3 -13 6 -5 7 19 23 14 23 -7 0 -27 12 -32 30 -13 13 14 12 15 -3 9
-12 -5 -17 -1 -17 13 0 11 5 20 10 20 6 0 10 -5 10 -10 0 -7 6 -7 18 -1 12 6
23 7 30 1 9 -7 9 -7 2 2 -14 16 -13 28 3 28 7 0 19 -21 26 -46 10 -32 16 -42
22 -32 5 7 4 14 -1 16 -13 5 -13 32 0 32 6 0 15 -12 20 -26 12 -30 13 -44 3
-43 -21 3 -31 -3 -41 -26 -15 -32 -15 -48 -2 -40 6 3 10 14 10 24 0 10 7 24
15 31 12 10 15 10 15 -2 0 -8 -4 -18 -10 -24 -6 -6 -6 -15 0 -24 8 -12 10 -11
10 7 0 14 5 20 18 18 9 -1 11 0 5 2 -16 5 -17 19 -3 28 7 4 7 13 0 26 -6 10
-7 19 -3 19 4 0 2 5 -5 12 -7 7 -12 25 -12 40 0 21 5 28 20 28 14 0 20 7 20
21 0 12 4 17 11 14 5 -4 9 -18 7 -30 -2 -13 0 -24 5 -25 24 -1 26 1 17 25 -7
19 -6 23 5 18 8 -3 15 -17 16 -32 1 -43 7 -64 21 -72 9 -6 6 -9 -9 -9 -17 0
-23 6 -23 22 0 12 -3 18 -7 14 -4 -4 -8 -19 -8 -34 0 -15 -4 -27 -10 -27 -5 0
-9 8 -8 18 2 9 -2 17 -7 17 -17 0 -11 28 8 33 13 4 11 5 -5 6 -14 1 -23 7 -23
18 0 9 -2 14 -5 11 -10 -9 17 -102 37 -127 l18 -24 6 32 c7 32 30 42 40 16 4
-8 11 -12 17 -8 6 4 8 0 4 -10 -3 -8 0 -18 8 -21 18 -7 8 24 -13 41 -9 7 -13
16 -9 19 4 4 2 13 -4 20 -6 7 -8 18 -4 24 5 7 11 5 20 -7 7 -10 11 -21 9 -25
-3 -5 0 -8 5 -8 14 0 14 17 1 25 -15 9 -12 25 4 25 9 0 16 -17 21 -47 6 -37 9
-43 15 -28 4 11 3 28 -2 38 -5 10 -7 21 -4 24 9 9 26 -8 26 -25 0 -9 4 -23 9
-30 7 -11 9 -10 14 3 4 9 3 13 -3 10 -6 -3 -10 3 -10 14 0 23 25 29 33 9 3 -7
6 -3 6 8 1 17 -4 20 -24 16 -19 -3 -25 0 -25 13 0 12 6 16 20 12 11 -3 20 -1
20 5 0 6 7 8 15 4 8 -3 15 -1 15 5 0 6 -14 7 -36 3 -29 -5 -36 -4 -32 7 3 8
13 13 22 13 9 -1 16 2 16 7 0 6 -12 8 -27 7 -19 -2 -28 2 -31 15 -2 10 3 17
13 17 9 0 14 -4 10 -10 -5 -8 22 3 54 24 11 7 11 10 0 17 -7 4 -10 12 -5 16 4
4 15 -2 23 -14 9 -13 22 -23 29 -23 15 0 19 -12 7 -23 -3 -4 -12 -2 -18 3 -9
7 -14 6 -18 -4 -3 -8 1 -13 10 -12 9 0 18 -5 21 -13 3 -10 -1 -12 -19 -8 -22
5 -22 5 -6 -7 18 -14 23 -36 8 -36 -5 0 -14 -13 -21 -30 -7 -16 -17 -30 -22
-30 -5 0 -6 -4 -3 -10 3 -5 3 -16 -2 -22 -13 -22 -11 -57 4 -51 7 3 13 0 13
-6 0 -6 5 -11 11 -11 8 0 8 5 -1 15 -7 9 -8 15 -2 15 5 0 13 8 16 17 6 16 6
16 -12 0 -23 -21 -31 -21 -28 0 3 16 34 34 48 27 3 -2 4 5 1 17 -5 17 -2 20
13 17 10 -2 18 -10 16 -17 -2 -9 3 -9 19 0 23 12 23 14 3 -36 -3 -8 -1 -15 5
-15 6 0 11 8 11 18 0 10 5 23 12 30 9 9 9 12 0 12 -16 0 -15 27 1 33 9 4 9 6
-1 6 -8 1 -16 -8 -19 -19 -5 -20 -23 -28 -23 -10 0 6 -11 10 -25 10 -30 0 -31
5 -7 35 19 24 34 22 45 -5 3 -8 6 2 6 24 1 33 4 38 21 33 11 -3 18 0 17 6 -1
6 6 12 15 15 12 2 16 -3 15 -17 -1 -15 -8 -21 -24 -21 -24 0 -39 -15 -23 -25
5 -3 10 -1 10 4 0 6 7 11 15 11 8 0 15 -7 15 -15 0 -8 -5 -15 -12 -15 -6 0 -9
-2 -6 -5 12 -12 36 7 31 26 -3 10 -1 19 5 19 6 0 8 9 5 20 -3 11 -1 20 5 20
18 0 24 -18 12 -40 -8 -15 -6 -32 6 -70 25 -77 29 -62 8 32 -5 23 -3 27 11 22
10 -4 15 -14 12 -25 -3 -12 -1 -17 5 -13 7 5 9 -2 6 -19 -3 -15 -1 -24 3 -21
5 3 9 12 9 20 0 9 6 14 12 12 17 -6 46 32 52 67 5 26 5 27 -14 10 -21 -19 -27
-30 -10 -20 6 3 10 -1 10 -9 0 -8 -5 -18 -10 -21 -17 -11 -23 25 -10 53 8 15
12 34 11 43 -1 9 6 19 15 23 13 5 15 1 12 -19 -4 -18 0 -26 13 -30 15 -5 16
-11 9 -31 -8 -20 -7 -24 10 -24 11 0 20 -5 20 -12 0 -9 3 -9 12 0 16 16 28 15
28 -3 0 -8 -7 -15 -15 -15 -17 0 -20 -16 -5 -25 6 -3 10 -1 10 4 0 6 5 11 11
11 6 0 9 -7 5 -15 -3 -8 -1 -15 4 -15 6 0 10 -7 10 -15 0 -20 -26 -19 -34 1
-4 10 -12 14 -22 10 -13 -5 -15 -1 -12 17 3 16 -1 28 -14 36 -25 15 -27 14
-38 -14 -5 -14 -15 -25 -22 -25 -8 0 -13 -13 -13 -34 0 -19 3 -32 7 -30 4 3 8
17 8 31 0 16 7 27 19 30 13 3 17 11 13 26 -5 20 -4 20 11 8 9 -7 14 -17 12
-22 -3 -4 0 -17 7 -28 9 -15 15 -17 25 -9 10 8 13 7 13 -3 0 -8 -10 -19 -22
-24 -12 -6 -23 -17 -25 -25 -3 -10 -1 -9 7 3 6 9 15 17 20 17 5 0 11 -8 13
-17 4 -14 5 -12 6 5 1 15 7 22 21 22 17 0 19 -3 11 -18 -9 -16 -6 -19 17 -17
18 1 28 7 31 20 3 17 2 18 -14 2 -9 -9 -17 -17 -18 -17 -1 0 -2 27 -2 60 0 33
3 60 7 60 7 0 12 -15 9 -32 0 -3 13 -11 28 -16 26 -9 29 -8 34 14 3 17 0 24
-10 24 -9 0 -13 -6 -9 -15 3 -9 0 -15 -9 -15 -8 0 -15 3 -16 8 0 4 -3 25 -5
47 -4 30 -1 43 12 52 17 12 17 13 -2 13 -18 1 -18 1 0 11 14 9 20 8 26 -1 5
-9 9 -9 14 -1 10 16 26 14 26 -4 0 -8 -8 -15 -18 -15 -11 0 -27 -9 -37 -20
-11 -12 -13 -20 -6 -20 7 0 9 -4 6 -10 -4 -6 1 -7 10 -3 10 3 21 0 26 -8 7
-12 9 -12 10 1 2 33 8 55 17 58 6 2 7 12 4 24 -4 17 -2 19 17 13 12 -4 21 -2
21 4 0 6 5 11 10 11 6 0 10 -7 10 -15 0 -8 -8 -15 -18 -15 -18 0 -46 -55 -36
-72 3 -5 -1 -15 -9 -21 -16 -14 -29 -57 -17 -57 5 0 11 -8 13 -17 3 -10 4 1 2
24 -3 37 -1 43 16 43 16 0 18 3 9 19 -7 13 -7 22 0 26 6 3 15 -6 20 -20 14
-37 12 -48 -6 -41 -8 3 -13 2 -9 -3 3 -5 -1 -12 -7 -14 -10 -4 -10 -6 0 -6 14
-1 16 -28 2 -33 -6 -2 -6 -8 0 -18 8 -13 10 -12 10 3 0 29 59 18 61 -12 0 -14
1 -14 7 1 5 11 12 14 20 9 11 -7 11 -11 -1 -22 -12 -12 -12 -17 0 -27 14 -14
15 -11 16 36 0 12 5 22 12 22 8 0 11 8 8 19 -3 10 0 22 6 25 6 4 11 2 11 -3 0
-6 5 -11 11 -11 5 0 7 5 3 11 -4 7 -1 10 7 7 8 -3 15 -13 17 -24 2 -11 11 -25
22 -32 16 -10 18 -9 14 3 -4 8 -10 15 -15 15 -5 0 -9 9 -9 20 0 11 -5 20 -10
20 -7 0 -7 6 0 19 7 13 7 22 0 26 -15 9 -12 25 5 25 9 0 15 -9 16 -22 0 -22 1
-22 8 -3 5 11 6 25 4 31 -2 7 1 15 7 19 13 8 51 -35 45 -52 -2 -7 0 -15 5 -18
6 -4 10 9 10 29 0 27 -3 34 -15 30 -21 -8 -19 13 3 25 15 9 15 12 2 22 -11 8
-12 12 -2 16 6 2 12 9 12 14 0 6 -4 7 -10 4 -5 -3 -10 1 -10 9 0 9 5 16 10 16
6 0 10 17 10 37 0 33 -1 35 -13 18 -8 -10 -19 -15 -26 -11 -8 6 -10 0 -5 -18
4 -16 2 -26 -5 -26 -6 0 -12 5 -12 10 -1 6 -2 15 -3 21 -1 11 -28 26 -48 28
-5 1 -8 -8 -8 -20 0 -12 -5 -19 -12 -16 -7 2 -12 11 -10 21 2 9 -2 16 -8 16
-5 0 -10 -4 -10 -10 0 -5 -5 -10 -11 -10 -6 0 -9 9 -6 20 3 11 1 20 -4 20 -5
0 -9 -9 -9 -20 0 -11 -7 -20 -15 -20 -8 0 -15 5 -15 11 0 5 -5 7 -10 4 -7 -4
-6 -13 1 -26 9 -18 8 -20 -8 -17 -14 3 -17 11 -15 38 2 27 0 31 -7 20 -6 -8
-11 -23 -11 -32 0 -10 -5 -18 -10 -18 -6 0 -10 6 -9 13 1 6 1 21 0 32 -2 19
-3 18 -11 -2 -12 -29 -34 -31 -27 -3 3 11 1 18 -4 14 -12 -7 -11 -61 1 -69 16
-10 12 -45 -6 -45 -10 0 -13 6 -9 19 6 20 -19 49 -29 32 -4 -5 -2 -12 4 -16
16 -10 12 -32 -7 -39 -10 -3 -24 -9 -32 -12 -10 -5 -13 -1 -9 14 3 12 1 23 -6
25 -8 3 -7 8 2 18 11 11 14 10 18 -9 12 -44 20 -21 10 28 -9 48 -21 58 -21 19
0 -29 -20 -23 -22 7 -2 32 -13 46 -13 17 0 -12 -7 -24 -16 -27 -13 -5 -15 -1
-10 19 8 31 -2 33 -13 3 -5 -14 -5 -28 2 -36 12 -15 3 -27 -12 -17 -6 3 -11
17 -11 31 0 15 -4 23 -10 19 -6 -4 -8 -11 -5 -16 4 -5 -1 -16 -9 -25 -15 -14
-16 -13 -17 8 -1 13 -1 32 -1 43 1 17 0 17 -4 3 -3 -10 -11 -18 -17 -18 -7 0
-23 -3 -36 -7 -21 -5 -23 -3 -17 18 l7 24 -15 -25 c-8 -14 -10 -26 -5 -28 5
-2 9 -14 9 -27 0 -28 15 -41 24 -20 3 8 1 15 -4 15 -6 0 -10 6 -10 14 0 13 47
32 57 22 9 -9 -8 -26 -20 -20 -7 4 -8 3 -4 -2 5 -5 14 -9 20 -9 5 0 12 -6 15
-14 3 -9 0 -12 -11 -8 -11 4 -14 -1 -13 -24 1 -16 -1 -29 -6 -29 -4 0 -8 -6
-8 -14 0 -8 -7 -22 -16 -30 -12 -12 -20 -13 -35 -5 -14 7 -17 14 -11 22 11 14
9 84 -2 110 -5 9 -6 29 -4 42 3 14 2 25 -2 25 -15 0 -19 -29 -9 -65 11 -39 8
-51 -11 -40 -7 4 -10 16 -7 26 3 11 1 19 -5 19 -6 0 -8 9 -5 20 3 11 1 20 -3
20 -5 0 -10 -10 -12 -22 -2 -13 -7 -21 -12 -20 -5 2 -12 -2 -16 -8 -4 -7 -13
-9 -20 -5 -9 6 -6 13 11 26 13 10 19 19 13 19 -5 0 -16 -6 -23 -12 -11 -11
-13 -8 -9 15 3 15 1 27 -3 27 -5 0 -9 -8 -10 -17 0 -10 -2 -30 -3 -45 -1 -16
1 -28 4 -28 3 0 11 -9 18 -20 14 -23 0 -27 -20 -7 -7 8 -18 12 -24 10 -13 -4
-40 25 -31 34 4 3 13 0 22 -7 13 -11 14 -8 9 21 -8 41 -14 50 -14 22 0 -12 -7
-23 -15 -27 -8 -3 -15 0 -15 7 0 8 -3 8 -9 -2 -5 -7 -13 -11 -19 -7 -6 3 -12
1 -14 -6 -2 -6 -10 -8 -16 -4 -19 11 -14 26 8 26 11 0 20 4 20 9 0 5 -10 7
-22 3 -18 -4 -20 -2 -16 16 4 12 2 22 -3 22 -5 0 -9 -7 -9 -16 0 -11 -6 -15
-20 -11 -15 4 -20 0 -20 -15 0 -14 -5 -18 -16 -14 -13 5 -15 1 -10 -18 4 -16
0 -28 -11 -37 -14 -13 -16 -11 -11 14 3 15 1 27 -3 27 -5 0 -9 9 -9 21 0 12
-4 17 -11 14 -6 -4 -8 -14 -5 -22 8 -20 -4 -39 -14 -23 -5 9 -9 9 -14 1 -4 -6
-2 -11 3 -11 6 0 11 -7 11 -15 0 -8 -4 -15 -8 -15 -15 0 -30 22 -25 36 3 8 0
14 -6 14 -15 0 -14 27 1 32 7 3 6 7 -5 11 -13 5 -17 1 -17 -14 0 -14 -5 -19
-14 -16 -8 3 -17 -1 -21 -10 -4 -12 -9 -13 -16 -6 -14 14 -3 33 17 33 8 0 14
9 13 23 -1 15 -3 17 -6 5 -2 -9 -11 -19 -20 -22 -12 -5 -14 -1 -10 14 3 11 1
18 -4 14 -5 -3 -9 -21 -9 -40 0 -22 -4 -33 -11 -29 -6 4 -8 13 -5 20 2 7 -2
16 -10 19 -12 5 -14 1 -9 -15 5 -15 3 -20 -6 -17 -8 3 -17 20 -20 39 -6 32
-12 25 -12 -13 0 -10 -6 -18 -13 -18 -8 0 -14 10 -14 22 0 12 -3 18 -7 15 -9
-10 -10 -57 -1 -57 4 0 8 -7 8 -15 0 -8 -4 -15 -9 -15 -11 0 -34 88 -26 101 4
5 1 9 -4 9 -6 0 -11 -9 -11 -20 0 -11 -6 -20 -14 -20 -9 0 -12 7 -9 20 3 11 3
20 -1 20 -3 0 -6 -7 -6 -15z"/>
</g>
</svg>
